<?xml version="1.0" standalone="no"?>
<!DOCTYPE svg PUBLIC "-//W3C//DTD SVG 20010904//EN"
 "http://www.w3.org/TR/2001/REC-SVG-20010904/DTD/svg10.dtd">
<svg version="1.0" xmlns="http://www.w3.org/2000/svg"
 width="253.000000pt" height="253.000000pt" viewBox="0 0 253.000000 253.000000"
 preserveAspectRatio="xMidYMid meet">
<metadata>
Created by potrace 1.11, written by Peter Selinger 2001-2013
</metadata>
<g transform="translate(0.000000,253.000000) scale(0.100000,-0.100000)"
fill="#000000" stroke="none">
<path d="M2110 2468 c0 -7 9 -42 20 -76 30 -97 27 -127 -18 -172 -50 -50 -111
-67 -291 -82 l-144 -12 -26 31 c-33 39 -60 53 -106 53 -41 0 -69 -12 -106 -46
-32 -30 -98 -42 -276 -51 -129 -6 -132 -6 -176 21 -53 30 -82 32 -167 10 -34
-8 -105 -16 -158 -16 -152 -1 -224 27 -262 102 -27 53 -25 97 6 155 32 62 22
75 -42 50 -63 -24 -131 -88 -160 -150 -27 -57 -33 -167 -12 -226 31 -90 107
-158 225 -199 l63 -23 -55 -38 c-30 -21 -90 -68 -132 -105 -43 -36 -102 -78
-131 -92 -28 -14 -52 -29 -52 -32 0 -3 10 -23 23 -45 40 -71 139 -122 271
-140 l48 -7 -27 -27 c-21 -22 -29 -44 -37 -102 -25 -182 31 -312 164 -378 71
-36 151 -41 214 -15 37 16 40 15 81 -7 24 -13 43 -28 43 -32 0 -5 -18 -32 -40
-59 -46 -59 -52 -105 -21 -166 47 -91 137 -141 266 -150 112 -6 168 13 229 78
25 27 46 53 46 58 0 18 73 83 119 106 26 14 114 48 196 76 224 78 287 116 332
202 25 47 27 63 27 148 -1 83 -5 107 -36 190 l-34 95 97 2 c111 1 183 19 251
62 49 31 102 107 96 138 -2 11 -35 35 -79 58 -42 22 -109 67 -148 100 -39 33
-94 72 -122 87 -28 16 -45 30 -38 32 8 3 37 10 66 16 59 13 152 65 201 113 18
17 43 54 57 81 69 139 -8 330 -153 382 -48 17 -92 18 -92 2z m117 -29 c115
-55 174 -218 123 -337 -25 -58 -95 -129 -159 -162 -24 -12 -76 -30 -117 -40
-90 -23 -354 -45 -430 -35 -69 8 -84 33 -84 133 0 55 4 75 21 96 19 25 25 26
112 26 214 0 368 33 428 90 34 32 39 43 39 83 0 25 -8 72 -19 106 -10 33 -16
63 -13 66 9 8 49 -2 99 -26z m-1838 -60 c-27 -54 -23 -131 9 -177 49 -67 181
-101 329 -83 48 6 88 9 91 7 2 -2 -5 -17 -15 -32 -13 -21 -18 -49 -19 -111 -2
-74 -5 -87 -29 -119 l-28 -37 -96 6 c-212 13 -367 90 -422 211 -21 46 -26 166
-8 213 26 71 104 147 174 170 39 13 41 4 14 -48z m1596 -724 c133 -35 255 -80
255 -94 0 -14 -69 -33 -140 -38 -100 -7 -148 7 -200 59 -39 39 -100 120 -100
132 0 3 19 -4 43 -14 23 -10 87 -30 142 -45z m-1319 -6 l7 -61 12 36 c17 48
30 63 70 76 28 9 42 8 91 -12 32 -13 59 -28 61 -34 2 -7 -8 -25 -22 -40 l-26
-29 5 27 c3 15 2 30 -4 33 -6 4 -7 -1 -3 -11 5 -14 3 -15 -16 -5 -29 16 -39 8
-33 -28 3 -22 0 -33 -12 -37 -13 -5 -14 -10 -5 -20 8 -10 7 -17 -4 -29 -20
-19 -51 -19 -67 0 -10 12 -16 12 -39 1 -46 -23 -203 -58 -237 -53 -18 3 -54
15 -81 27 -55 25 -62 13 62 100 39 28 82 59 96 70 27 22 92 49 121 50 13 0 18
-13 24 -61z m863 15 c71 -60 55 -171 -31 -215 -67 -34 -138 -13 -178 54 -38
61 -20 105 64 161 52 35 104 35 145 0z m-386 -277 c43 -19 100 -84 122 -140
40 -105 1 -273 -83 -360 -86 -89 -157 -98 -282 -36 -58 29 -89 39 -108 35 -15
-3 -50 -11 -79 -17 -70 -17 -142 5 -207 62 -72 64 -89 105 -94 229 -5 124 7
163 62 205 34 26 41 27 109 22 39 -3 101 -14 136 -26 82 -27 132 -27 228 3
129 40 148 42 196 23z m207 -481 c0 -2 -13 -34 -28 -70 -63 -148 -126 -197
-260 -204 -42 -3 -78 0 -84 6 -13 13 21 90 51 116 32 29 133 76 127 60 -17
-41 -15 -45 5 -15 27 40 132 111 166 111 12 0 23 -2 23 -4z"/>
<path d="M779 1653 c-13 -17 -13 -17 6 -3 11 8 22 16 24 17 2 2 0 3 -6 3 -6 0
-17 -8 -24 -17z"/>
<path d="M680 1561 c0 -6 4 -13 10 -16 6 -3 7 1 4 9 -7 18 -14 21 -14 7z"/>
<path d="M1415 1620 c-26 -28 -15 -31 12 -3 12 13 19 23 14 23 -4 0 -16 -9
-26 -20z"/>
<path d="M1461 1637 c2 -1 13 -9 24 -17 19 -14 19 -14 6 3 -7 9 -18 17 -24 17
-6 0 -8 -1 -6 -3z"/>
<path d="M1446 1573 c5 -19 2 -30 -12 -40 -16 -11 -16 -15 -4 -27 8 -8 26 -16
40 -18 20 -2 24 1 22 16 -2 10 0 16 5 13 4 -3 8 14 8 38 0 24 -3 39 -6 33 -4
-7 -9 -6 -13 1 -4 6 -16 11 -27 11 -16 0 -18 -5 -13 -27z"/>
<path d="M1400 1514 c0 -19 38 -46 57 -41 15 4 14 5 -4 6 -12 0 -29 11 -37 23
-9 12 -16 18 -16 12z"/>
<path d="M480 1211 c-15 -30 -12 -81 10 -128 47 -104 141 -35 99 74 -24 65
-86 95 -109 54z"/>
<path d="M964 1155 c-68 -73 -72 -185 -5 -185 53 0 111 79 111 150 0 77 -50
94 -106 35z"/>
<path d="M200 235 l0 -145 84 0 c69 0 88 4 110 21 14 11 26 16 26 10 0 -20 61
-43 99 -37 20 3 142 5 271 4 129 0 258 0 285 0 28 0 83 1 123 1 l72 0 0 34 c0
31 3 34 30 34 27 0 30 -3 30 -34 l0 -33 60 0 c52 0 60 3 60 19 0 17 3 17 47
-5 25 -13 59 -24 75 -24 38 0 90 22 115 49 l20 21 12 -24 c21 -37 51 -46 145
-39 l86 6 0 83 c0 68 3 84 15 84 12 0 15 -16 15 -85 l0 -85 55 0 55 0 0 85 c0
69 3 85 15 85 12 0 15 -16 15 -85 l0 -85 59 0 60 0 4 48 3 47 2 -47 2 -48 60
0 60 0 0 145 0 145 -59 0 -60 0 -4 -42 -4 -43 -1 43 -2 42 -205 0 -204 0 -4
-92 -3 -93 -2 93 -2 92 -60 0 c-57 0 -60 -1 -60 -25 l0 -24 -36 24 c-29 20
-50 25 -95 25 -51 0 -63 -4 -94 -31 l-35 -31 0 31 c0 44 -32 41 -92 -10 l-49
-41 -44 41 c-46 43 -79 52 -89 25 -5 -14 -8 -14 -28 0 -13 9 -43 16 -69 16
-62 0 -99 -35 -99 -93 0 -23 7 -48 16 -58 15 -17 14 -19 -10 -25 -50 -12 -56
-2 -56 91 l0 85 -55 0 -54 0 -3 -87 c-3 -86 -3 -88 -28 -88 -25 0 -25 2 -28
88 l-3 87 -109 0 -109 0 -4 -92 -3 -93 -2 93 -2 92 -60 0 c-33 0 -60 -4 -60
-10 0 -6 -9 -6 -26 0 -14 6 -59 10 -100 10 l-74 0 0 -145z m925 100 c14 -13
25 -28 25 -33 0 -14 -47 -21 -59 -9 -10 10 -31 1 -31 -14 0 -5 12 -14 28 -20
42 -16 72 -49 72 -80 0 -60 -101 -93 -148 -49 -12 12 -22 27 -22 34 0 16 48
28 56 15 3 -5 14 -9 25 -9 33 0 21 26 -20 45 -47 21 -67 58 -52 97 20 52 86
64 126 23z m228 -27 l54 53 6 -83 c4 -46 7 -102 7 -125 0 -41 -2 -43 -29 -43
-32 0 -41 18 -41 79 l0 34 -25 -23 -25 -23 -24 22 -25 23 -3 -53 c-3 -53 -4
-54 -35 -57 l-32 -3 4 58 c2 32 4 89 4 128 l1 69 55 -54 55 -54 53 52z m314 8
c75 -82 20 -206 -92 -206 -74 0 -125 51 -125 125 0 78 59 129 140 121 35 -3
51 -11 77 -40z m-1285 17 c22 -20 23 -66 2 -88 -15 -15 -15 -17 2 -36 14 -15
16 -25 8 -47 -13 -37 -49 -53 -114 -50 l-55 3 -3 118 -3 117 72 0 c53 0 77 -4
91 -17z m108 -62 c0 -86 15 -115 48 -94 13 8 18 29 20 92 l3 81 29 0 30 0 0
-120 0 -120 -30 0 c-16 0 -30 5 -30 10 0 7 -6 7 -19 0 -31 -16 -69 -12 -91 10
-17 17 -20 33 -20 120 l0 100 30 0 30 0 0 -79z m240 -6 l0 -85 35 0 c33 0 35
-2 35 -35 l0 -36 -67 3 -68 3 -3 118 -3 117 36 0 35 0 0 -85z m170 0 l0 -85
29 0 c21 0 30 -6 35 -22 12 -46 9 -48 -64 -48 l-70 0 0 120 0 120 35 0 35 0 0
-85z m890 7 c0 -80 9 -102 41 -102 23 0 29 20 29 106 l0 74 30 0 30 0 0 -120
0 -120 -30 0 c-16 0 -30 5 -30 10 0 7 -6 7 -19 0 -31 -16 -69 -12 -91 10 -17
17 -20 33 -20 120 l0 100 30 0 30 0 0 -78z m330 48 c0 -25 -4 -30 -25 -30 -25
0 -25 -1 -25 -91 l0 -90 -32 3 -33 3 -3 88 c-3 85 -3 87 -27 87 -21 0 -25 5
-25 30 l0 30 85 0 85 0 0 -30z m92 -7 c3 -35 6 -38 33 -38 27 0 30 3 33 38 3
34 6 37 33 37 l29 0 0 -120 0 -120 -30 0 c-29 0 -30 1 -30 50 l0 50 -35 0 -35
0 0 -50 c0 -49 -1 -50 -30 -50 l-30 0 0 120 0 120 29 0 c27 0 30 -3 33 -37z"/>
<path d="M1552 289 c-53 -20 -51 -101 3 -115 33 -8 50 -1 71 32 16 23 16 29 3
52 -17 30 -46 42 -77 31z m48 -34 c20 -25 8 -50 -25 -50 -21 0 -31 5 -33 18
-4 21 14 47 33 47 7 0 18 -7 25 -15z"/>
<path d="M290 280 c0 -16 5 -21 23 -18 12 2 22 10 22 18 0 8 -10 16 -22 18
-18 3 -23 -2 -23 -18z"/>
<path d="M290 191 c0 -15 6 -21 21 -21 14 0 19 5 17 17 -5 26 -38 29 -38 4z"/>
</g>
</svg>
