<svg xmlns="http://www.w3.org/2000/svg" width="615.933" height="614.393" viewBox="0 0 615.933 614.393">
  <g id="dartboard" transform="translate(-203.799 -77)">
    <g id="Background">
      <circle id="Ellipse_1" data-name="Ellipse 1" cx="307.196" cy="307.196" r="307.196" transform="translate(205.34 77)" fill="#fff"/>
    </g>
    <g id="Board">
      <path id="Path_1" data-name="Path 1" d="M444.725,251.188l-32.449-64.154a220.512,220.512,0,0,0-56.021,40.484l50.683,50.995A148.362,148.362,0,0,1,444.725,251.188Z"/>
      <path id="Path_2" data-name="Path 2" d="M364.714,407.08l-71,11.016a220.846,220.846,0,0,0,21.121,65.825l64.155-32.431A149.665,149.665,0,0,1,364.714,407.08Z"/>
      <path id="Path_3" data-name="Path 3" d="M379.421,316.147l-63.958-32.83a221.02,221.02,0,0,0-21.6,65.659l70.986,11.464A147.947,147.947,0,0,1,379.421,316.147Z"/>
      <path id="Path_4" data-name="Path 4" d="M617.7,279.14l50.983-50.67a221.9,221.9,0,0,0-55.8-40.8l-32.824,63.945A150.26,150.26,0,0,1,617.7,279.14Z"/>
      <path id="Path_5" data-name="Path 5" d="M535.763,237.052l11.463-70.986a221.544,221.544,0,0,0-69.131-.153l11.027,71.022A148.367,148.367,0,0,1,535.763,237.052Z"/>
      <path id="Path_6" data-name="Path 6" d="M579.275,517.218l32.437,64.155a219.923,219.923,0,0,0,56.021-40.51L617.063,489.9A148.414,148.414,0,0,1,579.275,517.218Z"/>
      <path id="Path_7" data-name="Path 7" d="M644.585,452.271l63.94,32.817a220.509,220.509,0,0,0,21.6-65.666l-70.968-11.457A148.878,148.878,0,0,1,644.585,452.271Z"/>
      <path id="Path_8" data-name="Path 8" d="M709.176,284.484l-64.16,32.449a148.734,148.734,0,0,1,14.246,44.4h0L730.291,350.3V350.3A220.769,220.769,0,0,0,709.176,284.484Z"/>
      <path id="Path_9" data-name="Path 9" d="M488.256,531.354l-11.481,70.974a219.886,219.886,0,0,0,69.131.166l-11.027-71.022A149.422,149.422,0,0,1,488.256,531.354Z"/>
      <path id="Path_10" data-name="Path 10" d="M406.3,489.271l-50.978,50.658a221.847,221.847,0,0,0,55.794,40.8l32.818-63.939A149.588,149.588,0,0,1,406.3,489.271Z"/>
      <path id="Path_11" data-name="Path 11" d="M415.728,287.335l-8.8-8.834a149.98,149.98,0,0,0-27.516,37.64l11.088,5.7A137.6,137.6,0,0,1,415.728,287.335Z"/>
      <path id="Path_12" data-name="Path 12" d="M377.037,405.164a136.183,136.183,0,0,1,.123-42.739l-12.311-1.984a149.391,149.391,0,0,0-.129,46.628l.006.012,12.311-1.917Z"/>
      <path id="Path_13" data-name="Path 13" d="M491.039,249.259l-1.917-12.324a148.421,148.421,0,0,0-44.4,14.253l5.627,11.113A136.761,136.761,0,0,1,491.039,249.259Z"/>
      <path id="Path_14" data-name="Path 14" d="M390.1,445.851l-11.113,5.64A148.871,148.871,0,0,0,406.3,489.272l8.834-8.8A136.333,136.333,0,0,1,390.1,445.851Z"/>
      <path id="Path_15" data-name="Path 15" d="M574.367,262.7l5.688-11.083a147.931,147.931,0,0,0-44.293-14.565l-2,12.3A136.066,136.066,0,0,1,574.367,262.7Z"/>
      <path id="Path_16" data-name="Path 16" d="M608.278,481.052l8.791,8.853a150.792,150.792,0,0,0,27.522-37.652l-11.107-5.688A137.19,137.19,0,0,1,608.278,481.052Z"/>
      <path id="Path_17" data-name="Path 17" d="M646.853,405.969l12.3,1.978a149.1,149.1,0,0,0,.11-46.609l-12.312,1.917A136.759,136.759,0,0,1,646.853,405.969Z"/>
      <path id="Path_18" data-name="Path 18" d="M608.855,287.919a136.532,136.532,0,0,1,25.034,34.63l11.119-5.621A148.852,148.852,0,0,0,617.7,279.134Z"/>
      <path id="Path_19" data-name="Path 19" d="M449.633,505.687l-5.694,11.089a147.979,147.979,0,0,0,44.317,14.578l1.973-12.3A136.464,136.464,0,0,1,449.633,505.687Z"/>
      <path id="Path_20" data-name="Path 20" d="M532.949,519.141l1.922,12.336a149.168,149.168,0,0,0,44.4-14.253L573.654,506.1A136.205,136.205,0,0,1,532.949,519.141Z"/>
      <path id="Path_21" data-name="Path 21" d="M489.854,372.838l-99.356-51a135.622,135.622,0,0,0-13.343,40.589l110.26,17.8A24.91,24.91,0,0,1,489.854,372.838Z"/>
      <path id="Path_22" data-name="Path 22" d="M494.344,401.754l-79.206,78.727a136.964,136.964,0,0,0,34.489,25.213l51.021-99.351A24.929,24.929,0,0,1,494.344,401.754Z"/>
      <path id="Path_23" data-name="Path 23" d="M487.384,388.023,377.037,405.164A136.822,136.822,0,0,0,390.1,445.851l99.681-50.4A23.973,23.973,0,0,1,487.384,388.023Z"/>
      <path id="Path_24" data-name="Path 24" d="M500.758,361.97l-50.412-99.675a136.09,136.09,0,0,0-34.618,25.034l78.727,79.218A24.427,24.427,0,0,1,500.758,361.97Z"/>
      <path id="Path_25" data-name="Path 25" d="M515.975,359.623l17.791-110.267a136.263,136.263,0,0,0-42.727-.1l17.134,110.341A24.442,24.442,0,0,1,515.975,359.623Z"/>
      <path id="Path_26" data-name="Path 26" d="M534.135,395.574l99.35,50.995a136.426,136.426,0,0,0,13.368-40.6L536.6,388.164A25.189,25.189,0,0,1,534.135,395.574Z"/>
      <path id="Path_27" data-name="Path 27" d="M574.367,262.7l-51.008,99.35a24.2,24.2,0,0,1,6.284,4.614l79.206-78.739A137.388,137.388,0,0,0,574.367,262.7Z"/>
      <path id="Path_28" data-name="Path 28" d="M536.622,380.363h0L646.95,363.248h0a136.325,136.325,0,0,0-13.055-40.7l-99.656,50.418A24.758,24.758,0,0,1,536.622,380.363Z"/>
      <path id="Path_29" data-name="Path 29" d="M508.031,408.813l-17.8,110.242a136.444,136.444,0,0,0,42.721.086L515.815,408.85A25.819,25.819,0,0,1,508.031,408.813Z"/>
      <path id="Path_30" data-name="Path 30" d="M523.242,406.436,573.648,506.1a136.327,136.327,0,0,0,34.63-25.04l-78.733-79.206A24.433,24.433,0,0,1,523.242,406.436Z"/>
      <path id="Path_31" data-name="Path 31" d="M521.928,382.648a10.06,10.06,0,1,1-11.476-8.392A10.024,10.024,0,0,1,521.928,382.648Z"/>
      <path id="Path_32" data-name="Path 32" d="M785.164,245.554A306.96,306.96,0,0,0,463.843,80.668h0A306.977,306.977,0,0,0,207.464,431.329h0a306.868,306.868,0,0,0,350.655,256.4h0A306.887,306.887,0,0,0,814.511,337.054h0A306.746,306.746,0,0,0,785.164,245.554ZM743.789,421.781a234.761,234.761,0,0,1-23.044,70.07l-13.214-6.77a221.739,221.739,0,0,1-40.8,55.781L677.2,551.411a235.354,235.354,0,0,1-59.774,43.218l-6.715-13.257a220.822,220.822,0,0,1-65.813,21.12h0l2.279,14.664a235.325,235.325,0,0,1-73.774-.166l2.371-14.664a219.956,219.956,0,0,1-65.66-21.6l-6.788,13.221A237.065,237.065,0,0,1,343.8,550.4l10.529-10.475a219.872,219.872,0,0,1-40.5-56.009l-13.264,6.709a236.008,236.008,0,0,1-22.546-70.243l14.7-2.291h0a220.925,220.925,0,0,1,.141-69.118L278.2,346.611a234.751,234.751,0,0,1,23.062-70.077l13.2,6.782a223.549,223.549,0,0,1,40.792-55.806l-10.456-10.518a234.877,234.877,0,0,1,59.769-43.219l6.708,13.251a220.989,220.989,0,0,1,65.825-21.12l-2.278-14.683a235.084,235.084,0,0,1,73.769.166l-2.359,14.664a220.987,220.987,0,0,1,65.654,21.6l6.782-13.208A237,237,0,0,1,678.2,217.992L667.68,228.454a220.292,220.292,0,0,1,40.5,56.016l13.258-6.709a235.566,235.566,0,0,1,22.533,70.249h0L729.291,350.3a219.942,219.942,0,0,1-.166,69.112Z"/>
    </g>
  </g>
</svg>
