<?xml version="1.0" encoding="utf-8"?>
<!-- Generator: Adobe Illustrator 16.0.0, SVG Export Plug-In . SVG Version: 6.00 Build 0)  -->
<!DOCTYPE svg PUBLIC "-//W3C//DTD SVG 1.1//EN" "http://www.w3.org/Graphics/SVG/1.1/DTD/svg11.dtd">
<svg version="1.1" id="Layer_1" xmlns="http://www.w3.org/2000/svg" xmlns:xlink="http://www.w3.org/1999/xlink" x="0px" y="0px"
	 width="1683.78px" height="1190.55px" viewBox="0 0 1683.78 1190.55" enable-background="new 0 0 1683.78 1190.55"
	 xml:space="preserve">
<g>
	<path fill-rule="evenodd" clip-rule="evenodd" fill="#FFFFFF" d="M0,348.013c2.776,3.24,5.555,6.476,8.565,9.987
		c46.195-29.129,92.077-55.763,148.954-57.103c-5.722-11.312-10.846-21.449-16.471-32.572c6.717-0.827,12.354-1.741,18.027-2.171
		c42.517-3.211,84.783-0.808,126.777,6.297c12.428,2.104,24.688,5.161,37.057,7.627c3.878,0.774,5.651,2.684,6.478,6.698
		c1.719,8.357,3.872,16.666,6.502,24.781c0.648,1.993,3.618,3.826,5.903,4.6c16.605,5.581,33.595,10.122,49.915,16.419
		c29.141,11.254,57.216,24.878,83.956,41.147c7.815,4.754,15.885,9.092,24.544,14.03c0-13.368,0-26.184,0-40.199
		c7.177,3.622,13.619,6.394,19.567,9.982c19.234,11.597,39.106,22.368,57.17,35.585c18.596,13.614,35.527,29.516,52.846,44.813
		c10.26,9.054,19.933,18.784,29.656,28.423c1.378,1.369,2.258,3.99,2.152,5.963c-0.377,6.833-0.58,13.803-2.176,20.404
		c-1.932,7.96,1.074,13.401,6.283,18.716c21.749,22.199,43.473,44.429,65.007,66.84c8.456,8.797,16.383,18.098,24.573,27.146
		c0.829,0.914,1.857,1.654,3.165,2.801c6.534-9.068,12.812-17.89,19.2-26.629c12.241-16.758,24.37-33.607,36.979-50.082
		c2.273-2.965,6.652-4.31,10.727-6.814c-5.532-7.008-10.683-14.311-16.612-20.912c-26.445-29.443-52.416-59.361-79.913-87.798
		c-22.438-23.205-46.349-45.07-70.448-66.582c-21.372-19.079-43.275-37.684-66.098-54.984
		c-25.381-19.234-51.709-37.278-78.285-54.843c-22.295-14.731-45.186-28.66-68.472-41.766
		c-20.663-11.627-41.955-22.242-63.481-32.195c-22.489-10.403-45.127-20.837-68.54-28.762
		c-24.844-8.405-50.389-15.439-76.155-20.267c-39.067-7.322-78.512-12.823-117.949-17.896c-21.425-2.757-43.153-3.332-64.768-4.314
		C36.444,93.556,18.212,93.566,0,93.21C0,178.143,0,263.073,0,348.013z"/>
	<path fill-rule="evenodd" clip-rule="evenodd" fill="#FFFFFF" d="M1100.291,32.726c4.179,2.07,8.604,3.763,12.497,6.282
		c18.663,12.074,29.772,30.372,39.765,49.434c4.589,8.747,8.502,17.858,12.376,26.08c5.934-4.536,11.51-9.126,17.42-13.242
		c8.053-5.591,17.067-6.833,25.405-1.586c9.3,5.852,14.432,14.896,12.599,26.228c-0.991,6.151-3.705,12.028-5.731,18.305
		c1.393,0.111,2.834,0.276,4.275,0.332c26.16,0.96,51.188,6.391,72.486,22.297c19.045,14.233,25.449,25.202,16.463,49.717
		c-2.413,6.572-5.566,13.034-9.354,18.915c-9.377,14.562-18.339,29.555-29.255,42.922c-16.414,20.095-37.616,35.063-60.376,47.028
		c-24.38,12.816-49.272,25.071-74.973,34.869c-29.511,11.245-60.173,19.461-90.278,29.168c-3.309,1.068-6.767,2.757-9.232,5.117
		c-3.99,3.821-7.221,8.435-10.751,12.729c-24.883,30.251-49.795,60.478-74.619,90.777c-6.094,7.438-13.706,14.301-17.527,22.817
		c-12.23,27.299-23.238,55.156-34.26,82.979c-6.031,15.226-17.01,22.393-32.631,17.015c-10.233-3.525-19.186-10.824-28.637-16.55
		c-8.309-5.044-14.207-12.207-18.126-21.096c-4.242-9.62-2.972-19.026,4.609-25.826c18.002-16.141,36.288-31.975,54.434-47.954
		c5.92-5.214,13.063-9.625,17.43-15.94c16.555-23.935,32.21-48.489,48.18-72.825c11.742-17.894,23.34-35.885,35.218-53.683
		c5.194-7.791,8.266-15.481,8.217-25.468c-0.141-29.115,0.788-58.263,2.273-87.354c1.658-32.287,5.968-64.192,13.333-95.85
		c9.547-41.017,28.588-76.264,57.953-106.101c8.919-9.065,18.959-16.683,31.809-19.536
		C1094.285,32.726,1097.283,32.726,1100.291,32.726z M1156.194,151.48c-14.915,19.795-29.443,39.885-44.103,59.869
		c-13.271,18.087-26.585,36.146-39.832,54.249c-10.731,14.673-21.391,29.4-32.103,44.088c-3.777,5.17-7.83,10.156-11.375,15.48
		c-4.609,6.926-3.545,14.064,2.277,18.233c6.036,4.323,13.271,3.1,18.558-3.507c4.27-5.339,8.227-10.935,12.24-16.472
		c18.658-25.811,37.21-51.705,55.961-77.458c18.997-26.097,38.134-52.097,57.339-78.048c3.288-4.439,4.546-9.179,1.576-13.657
		c-2.374-3.584-6.282-6.147-10.117-9.74C1162.234,147.365,1158.273,148.714,1156.194,151.48z"/>
	<path fill-rule="evenodd" clip-rule="evenodd" fill="#FFFFFF" d="M1672.952,1012.048c-6.069,14.05-17.29,20.424-32.341,21.038
		c4.73,7.627,9.644,14.586,13.557,22.072c10.04,19.225,17.353,39.557,14.804,61.508c-2.259,19.438-7.288,29.053-29.086,35.088
		c-22.314,6.181-45.311,6.099-68.235,6.104c-18.421,0-36.199-3.956-53.421-9.963c-40.688-14.199-77.933-35.281-113.445-59.327
		c-21.231-14.388-41.428-30.299-62.175-45.403c-2.322-1.688-5.156-3.506-7.859-3.689c-23.089-1.567-46.196-2.811-69.299-4.072
		c-22.049-1.209-44.098-2.234-66.137-3.496c-17.778-1.016-35.072-0.532-52.527,5.024c-23.601,7.511-47.928,12.739-71.988,18.76
		c-2.123,0.527-4.7,0.111-6.862-0.552c-9.518-2.892-15.089-9.754-18.876-18.696c-5.083-12.009-2.524-24.55-3.163-36.857
		c-0.479-9.131,2.762-17.295,8.256-24.462c5.943-7.753,13.479-11.288,23.582-8.991c22.087,5.025,44.213,9.973,66.445,14.335
		c11.046,2.167,22.354,4.077,33.555,4.154c16.255,0.121,32.514-1.519,48.769-2.403c33.811-1.828,67.616-3.695,101.427-5.427
		c6.438-0.334,11.849-2.133,16.681-6.751c4.928-4.706,10.494-8.816,16.124-12.7c21.474-14.799,42.946-29.598,64.666-44.025
		c28.061-18.624,57.934-33.689,89.196-46.336c31.837-12.869,64.768-15.602,98.384-13.077c10.128,0.759,20.414,2.993,30.015,6.315
		c11.588,4,21.227,11.545,21.497,25.178c0.218,10.79-0.392,21.842-2.568,32.37c-3.893,18.837-12.951,35.711-22.852,52.087
		c-1.46,2.423-2.544,5.073-4.086,8.192c16.593,0.614,30.227,4.821,37.965,19.843
		C1672.952,1002.607,1672.952,1007.322,1672.952,1012.048z M1387.233,992.857c-9.141,0.01-14.194,3.579-15.19,10.563
		c-1.229,8.57,4.212,14.799,13.449,14.766c29.787-0.098,59.568-0.396,89.346-0.605c41.143-0.28,82.285-0.541,123.422-0.831
		c9.103-0.063,14.03-4.58,14.253-12.938c0.198-7.56-4.3-12.091-12.521-12.12c-19.925-0.086-39.855-0.014-59.786-0.004
		c-15.854,0-31.711,0-47.574,0c0,0.387,0,0.769,0,1.155C1457.5,992.843,1422.369,992.828,1387.233,992.857z"/>
	<path fill-rule="evenodd" clip-rule="evenodd" fill="#FFFFFF" d="M0,591.232c41.853,32.225,83.707,64.443,127.023,97.8
		c9.599-40.397,37.487-68.627,61.392-99.966c-7.831-9.286-15.347-18.281-22.958-27.19c-15.71-18.39-31.416-36.772-47.227-55.073
		c-13.133-15.205-26.496-30.212-39.607-45.437C67.172,448.071,56,434.544,44.568,421.234c-13.233-15.403-26.59-30.71-39.998-45.974
		c-1.125-1.277-3.026-1.881-4.57-2.8C0,445.387,0,518.309,0,591.232z"/>
	<path fill-rule="evenodd" clip-rule="evenodd" fill="#FFFFFF" d="M0,1024.917c39.374-1.122,78.746-2.243,118.276-3.37
		c-3.606-15.395-7.182-29.869-10.364-44.422c-9.038-41.336-13.311-83.257-15.048-125.473c-0.131-3.124,0.43-6.069-3.889-7.66
		c-28.075-10.369-56.022-21.087-84.03-31.63c-1.56-0.59-3.294-0.721-4.945-1.073C0,882.503,0,953.713,0,1024.917z"/>
	<path fill-rule="evenodd" clip-rule="evenodd" fill="#FFFFFF" d="M1149.196,1189.637c-2.452-11.259-4.479-22.619-7.424-33.743
		c-7.56-28.524-15.515-56.938-23.34-85.385c-0.213-0.798-0.711-1.519-1.64-3.434c-27.281,9.489-55.642,11.844-85.486,9.899
		c1.461,5.281,2.394,9.378,3.719,13.339c10.06,30.067,18.489,60.575,23.645,91.875c0.914,5.576,3.086,6.854,8.28,6.81
		c24.452-0.232,48.899-0.121,73.352-0.067c2.534,0.01,5.068,0.459,7.603,0.706
		C1148.33,1189.637,1148.761,1189.637,1149.196,1189.637z"/>
	<path fill-rule="evenodd" clip-rule="evenodd" fill="#FFFFFF" d="M769.561,1189.637c-0.595-1.32-0.83-3.101-1.835-3.894
		c-14.949-11.796-29.992-23.479-45.033-35.155c-18.583-14.426-37.167-28.857-55.799-43.227
		c-13.892-10.707-27.864-21.318-41.797-31.982c-6.428-4.918-12.848-9.842-19.834-15.195c-2.031,5.934-3.944,11.036-5.419,16.255
		c-0.278,0.986,0.975,2.646,1.864,3.699c20.15,23.853,40.374,47.647,60.521,71.5c9.38,11.109,18.475,22.445,28.058,33.37
		c1.804,2.061,5.289,3.686,8.019,3.725c21.007,0.305,42.013,0.145,63.022,0.198c2.319,0.01,4.631,0.459,6.945,0.706
		C768.702,1189.637,769.132,1189.637,769.561,1189.637z"/>
	<path fill-rule="evenodd" clip-rule="evenodd" fill="#FFFFFF" d="M505.746,1189.637c10.238-0.247,20.472-0.547,30.708-0.716
		c7.049-0.111,14.095-0.02,22.124-0.02c-0.462-7.946-0.764-15.312-1.337-22.658c-1.552-19.848-3.197-39.691-4.853-59.534
		c-0.389-4.687-0.759-9.393-1.594-14.006c-0.288-1.621-1.603-3.555-3.015-4.382c-4.034-2.37-8.353-4.231-12.947-6.485
		c-0.708,1.349-1.463,2.34-1.782,3.467c-9.187,32.041-18.354,64.091-27.429,96.165c-0.74,2.622-0.788,5.441-1.158,8.169
		C504.89,1189.637,505.32,1189.637,505.746,1189.637z"/>
	<path fill-rule="evenodd" clip-rule="evenodd" fill="#FFFFFF" d="M638.296,1189.637c-3.925-8.222-7.615-16.555-11.827-24.627
		c-7.095-13.595-14.538-27.016-21.797-40.533c-5.151-9.585-10.04-19.32-15.52-28.713c-1.006-1.727-4.254-2.974-6.476-2.988
		c-4.193-0.02-8.386,1.011-13.411,1.717c1.801,6.533,3.313,12.468,5.073,18.33c7.07,23.509,14.344,46.97,21.222,70.537
		c1.262,4.323,3.182,5.678,7.554,5.644c11.297-0.063,22.597,0.387,33.897,0.634C637.438,1189.637,637.868,1189.637,638.296,1189.637
		z"/>
	<path fill-rule="evenodd" clip-rule="evenodd" fill="#FFFFFF" d="M896.964,1189.637c-0.827-13.866-1.61-27.727-2.559-41.588
		c-0.067-1.029-1.117-2.524-2.064-2.887c-9.093-3.53-18.253-6.849-27.601-10.311c0,8.081-0.301,15.263,0.077,22.416
		c0.483,9.179,1.678,18.324,2.22,27.504c0.218,3.632,2.104,4.082,4.986,4.145c7.883,0.174,15.766,0.469,23.649,0.721
		C896.104,1189.637,896.533,1189.637,896.964,1189.637z"/>
	<path fill-rule="evenodd" clip-rule="evenodd" fill="#FFFFFF" d="M877.121,640.34c-20.124,7.613-34.087-1.871-48.021-11.926
		c-13.808-9.968-27.115-20.114-27.577-40.17c-4.121,5.213-8.313,10.378-12.347,15.665c-15.06,19.718-30.14,39.426-45.074,59.245
		c-10.427,13.841-20.636,27.847-30.933,41.785c-9.792,13.251-19.742,26.387-29.291,39.808
		c-10.795,15.172-21.142,30.662-31.833,45.906c-6.159,8.777-12.364,17.405-14.545,28.282c-1.942,9.697-1.173,18.838,4.701,26.978
		c2.142,2.969,1.898,4.967,0.087,7.945c-17.333,28.524-34.222,57.33-51.831,85.675c-8.681,13.978-19.084,26.876-27.843,40.809
		c-7.003,11.129-12.697,23.084-19.56,35.755c6.94,1.025,12.432,1.543,17.8,2.68c26.919,5.688,54.256,1.553,81.347,3.661
		c29.254,2.282,58.601,3.458,87.875,5.503c2.263,0.165,4.928,2.941,6.359,5.176c6.984,10.91,16.678,18.218,28.732,22.464
		c2.979,1.05,6.253,1.679,9.402,1.717c31.09,0.401,62.18,0.726,93.274,0.896c54.877,0.309,109.75,0.483,164.627,0.744
		c2.308,0.01,4.614,0.262,8.855,0.522c-16.424-12.105-19.113-28.021-19.263-45.466c-0.146-17.28,1.243-33.481,17.705-46.047
		c-3.506-0.362-5.445-0.744-7.38-0.744c-71.181-0.054-142.361-0.184-213.542-0.005c-15.636,0.044-31.315,0.638-46.886,2.002
		c-17.425,1.533-31.767,8.343-38.04,26.522c-0.52,1.509-3.383,2.975-5.267,3.134c-17.288,1.417-34.582,2.873-51.903,3.681
		c-27.189,1.267-54.403,2.061-81.61,3.022c-1.18,0.044-2.373-0.111-5.124-0.261c4.853-2.994,8.309-5.383,12.001-7.342
		c20.206-10.751,40.439-21.444,60.722-32.031c14.794-7.723,29.695-15.229,44.521-22.885c4.14-2.133,7.639-2.65,12.439-0.281
		c16.545,8.145,33.559,9.688,50.464,0.518c27.059-14.673,54.108-29.385,81.174-44.044c20.128-10.9,40.247-21.816,60.438-32.601
		c27.006-14.413,54.08-28.694,81.114-43.049c1.766-0.942,3.429-2.064,6.785-4.091c-20.607-1.882-29.704-15.22-37.611-29.787
		c-3.569-6.582-6.877-13.324-9.789-20.216c-3.869-9.146-2.684-18.311,1.906-27.229c-0.421-0.4-0.847-0.803-1.268-1.204
		c-6.718,3.327-13.503,6.529-20.134,10.026c-13.991,7.39-27.92,14.905-41.829,22.439c-25.946,14.045-51.913,28.041-77.769,42.255
		c-18.185,9.997-36.282,20.168-54.268,30.522c-13.522,7.786-27.373,15.195-40.044,24.225c-13.222,9.421-22.302,21.889-19.331,39.846
		c0.307,1.828-1.388,4.919-3.069,5.992c-25.224,16.145-50.508,32.21-75.985,47.952c-14.175,8.764-28.734,16.894-44.948,26.378
		c2.108-3.4,3.105-5.33,4.391-7.042c19.703-26.116,39.387-52.257,59.196-78.285c8.164-10.722,16.743-21.12,24.878-31.856
		c2.326-3.076,4.73-4.372,8.582-4.063c13.472,1.121,26.363-1.253,36.855-10.055c6.606-5.543,12.188-12.453,17.551-19.287
		c10.691-13.624,21.019-27.548,31.32-41.481c11.191-15.142,22.071-30.521,33.303-45.64c10.705-14.422,21.643-28.675,32.561-42.941
		c15.987-20.907,32.053-41.752,48.067-62.645C873.609,645.602,874.818,643.682,877.121,640.34z"/>
	<path fill-rule="evenodd" clip-rule="evenodd" fill="#FFFFFF" d="M1534.121,521.428c16.956,10.616,31.779,23.775,40.881,41.721
		c10.19,20.1,12.923,34.207-7.752,52.619c-5.088,4.541-10.205,9.275-16.013,12.738c-17.614,10.476-34.875,21.957-53.563,30.105
		c-25.743,11.221-53.75,13.958-81.651,14.993c-52.855,1.958-105.252-2.742-157.28-12.062c-3.651-0.658-8.014-1.225-11.211,0.125
		c-11.999,5.083-23.684,10.911-35.426,16.579c-30.038,14.499-60.115,28.931-90.027,43.69c-9.547,4.716-19.839,9.006-27.669,15.893
		c-22.773,20.075-44.421,41.418-66.683,62.078c-2.171,2.003-5.489,3.42-8.444,3.816c-11.418,1.514-21.037-3.144-27.562-11.897
		c-6.979-9.362-12.971-19.664-17.991-30.217c-2.718-5.717-3.391-12.816-3.438-19.302c-0.077-9.711,6.64-18.891,14.103-21.101
		c22.334-6.636,44.702-13.121,67.017-19.814c9.585-2.883,19.94-4.618,28.413-9.527c22.188-12.851,43.474-27.248,65.227-40.857
		c23.94-14.973,48.025-29.714,71.945-44.721c1.789-1.122,3.196-3.361,4.048-5.393c16.941-40.519,36.451-79.695,59.447-117.162
		c16.512-26.899,34.464-52.628,56.798-75.049c24.713-24.815,54.384-41.346,87.856-51.004c21.153-6.099,36.286,2.002,45.528,22.47
		c7.758,17.173,9.938,35.314,10.708,53.76c0.401,9.557,0.072,19.152,0.072,28.868c6.988-1.766,13.31-3.714,19.766-4.919
		c11.598-2.152,23.171,2.854,27.132,11.259c5.547,11.757,2.675,25.85-6.862,33.936c-2.563,2.172-5.04,4.44-7.632,6.737
		C1520.918,513.83,1527.67,517.395,1534.121,521.428z M1457.857,492.178c-15.81,8.493-31.609,16.995-47.279,25.739
		c-18.484,10.306-36.785,20.941-55.25,31.278c-23.684,13.261-47.448,26.368-71.181,39.542c-4.86,2.693-9.817,5.223-14.591,8.057
		c-6.998,4.154-9.136,11.255-5.479,17.483c3.71,6.355,11.888,8.415,18.514,4.687c33.172-18.634,66.319-37.303,99.525-55.874
		c29.091-16.286,58.254-32.454,87.373-48.68c5.948-3.313,8.009-7.776,6.195-14.533c-1.567-5.799-5.509-8.996-12.851-9.174
		C1461.887,490.974,1459.672,491.201,1457.857,492.178z"/>
	<path fill-rule="evenodd" clip-rule="evenodd" fill="#FFFFFF" d="M169.724,304.264c6.219,11.67,11.845,22.431,17.662,33.08
		c10.669,19.534,21.495,38.976,32.167,58.51c13.741,25.144,27.375,50.346,41.088,75.509c10.341,18.963,20.645,37.956,31.239,56.778
		c1.058,1.881,4.066,3.898,6.089,3.821c29.949-1.146,59.883-2.665,89.824-4.019c4.455-0.203,8.921-0.034,14.835-0.034
		c-2.35-7.607-4.271-14.446-6.565-21.158c-6.505-19.012-13.208-37.96-19.742-56.972c-11.051-32.152-22.022-64.328-33.037-96.494
		c-3.608-10.519-7.061-21.091-11.034-31.465c-0.902-2.355-3.386-5.208-5.648-5.77c-25.597-6.277-51.418-11.602-77.895-12.028
		c-24.425-0.392-48.861-0.169-73.289-0.193C173.949,303.829,172.478,304.046,169.724,304.264z"/>
	<path fill-rule="evenodd" clip-rule="evenodd" fill="#FFFFFF" d="M161.209,869.793c-0.657,9.455-1.351,17.531-1.763,25.628
		c-2.038,39.962,3.98,78.986,13.39,117.657c1.188,4.87,3.03,6.336,8.209,6.225c45.662-1.002,91.337-1.611,137.006-2.39
		c58.319-0.991,116.632-2.026,174.946-3.066c0.392-0.009,0.783-0.261,1.785-0.614c-0.626-4.643-1.049-9.474-2.075-14.175
		c-0.256-1.185-2.283-2.321-3.729-2.878c-27.528-10.645-55.124-21.12-82.64-31.793c-35.08-13.605-70.087-27.394-105.165-40.998
		c-16.159-6.268-32.438-12.221-48.604-18.455c-27.117-10.461-54.185-21.038-81.284-31.547
		C168.353,872.25,165.364,871.273,161.209,869.793z"/>
	<path fill-rule="evenodd" clip-rule="evenodd" fill="#FFFFFF" d="M494.409,967.979c4-6.104,4.718-10.582-0.518-16.632
		c-26.609-30.725-52.672-61.919-78.827-93.036c-26.285-31.276-52.387-62.722-78.691-93.983
		c-22.034-26.184-44.282-52.184-66.375-78.314c-12.95-15.32-25.784-30.744-39.363-46.95c-6.643,9.247-13.059,17.729-18.996,26.536
		c-12.134,18.001-21.354,37.448-28.416,57.982c-1.402,4.077-0.4,6.176,2.781,8.604c27.057,20.588,53.951,41.389,81.004,61.972
		c18.718,14.253,37.75,28.084,56.386,42.434c22.704,17.488,45.077,35.406,67.71,52.986c16.896,13.121,34.004,25.971,50.982,38.99
		c15.275,11.714,30.483,23.515,45.768,35.223C489.849,965.324,492.093,966.51,494.409,967.979z"/>
	<path fill-rule="evenodd" clip-rule="evenodd" fill="#FFFFFF" d="M504.087,393.721c0.554,9.189,0.962,17.261,1.538,25.323
		c2.967,41.437,5.944,82.869,8.996,124.302c0.634,8.529,1.388,17.065,2.568,25.533c0.288,2.09,2.002,4.817,3.823,5.722
		c23.589,11.786,45.507,26.266,66.905,41.52c11.276,8.038,21.8,17.145,33.503,26.435c2.742-11.8,5.506-22.875,7.871-34.027
		c5.1-24.032,9.956-48.116,14.997-72.155c2.063-9.832,4.215-19.65,6.614-29.4c1.195-4.851,0.508-7.975-3.881-11.433
		c-21.998-17.318-43.258-35.576-65.438-52.638c-11.827-9.103-24.921-16.564-37.581-24.564
		C531.213,410.266,518.259,402.445,504.087,393.721z"/>
	<path fill-rule="evenodd" clip-rule="evenodd" fill="#FFFFFF" d="M526.102,943.266c-3.284-11.22-6.205-21.676-9.412-32.035
		c-7.206-23.287-14.577-46.516-21.848-69.783c-11.165-35.721-22.366-71.422-33.426-107.162
		c-9.735-31.46-19.214-62.992-28.974-94.438c-5.958-19.186-12.12-38.304-18.508-57.344c-0.692-2.065-3.441-4.851-5.301-4.904
		c-28.655-0.817-57.438-3.317-85.605,4.711c-0.791,0.228-1.481,0.793-2.788,1.514c7.886,14.774,15.631,29.443,23.529,44.034
		c10.282,19.002,20.697,37.941,31.034,56.914c15.447,28.35,30.933,56.686,46.303,85.075c22.204,41.012,44.315,82.071,66.475,123.107
		c8.331,15.433,16.97,30.706,24.892,46.356C515.611,945.52,519.848,944.33,526.102,943.266z"/>
	<path fill-rule="evenodd" clip-rule="evenodd" fill="#FFFFFF" d="M551.821,952.059c14.342-15.689,16.177-35.059,19.747-53.925
		c9.295-49.161,18.833-98.269,28.379-147.386c4.2-21.6,8.749-43.13,12.845-64.748c0.368-1.935-0.745-5.117-2.271-6.293
		c-15.249-11.732-30.372-23.688-46.252-34.521c-12.306-8.401-25.625-15.308-38.516-22.833c-0.861-0.502-1.93-0.652-3.874-1.276
		c0.74,13.464,1.323,26.223,2.162,38.961c1.913,29.062,4.039,58.108,5.91,87.175c2.52,39.111,4.807,78.241,7.322,117.353
		c1.62,25.221,3.801,50.403,5.034,75.635C542.661,947.565,546.694,950.003,551.821,952.059z"/>
	<path fill-rule="evenodd" clip-rule="evenodd" fill="#FFFFFF" d="M261.131,1188.543c1.66,0.107,3.321,0.305,4.98,0.305
		c54.258,0.016,108.518-0.043,162.781,0.126c4.88,0.015,7.486-1.528,10.146-5.726c13.633-21.488,27.79-42.646,41.665-63.989
		c10.381-15.965,20.109-32.384,31.126-47.898c5.16-7.269,7.124-12.633,0.073-19.524c-2.771-2.703-4.034-6.959-6.679-11.776
		c-81.743,49.079-163.171,97.974-244.607,146.868C260.79,1187.465,260.961,1188.007,261.131,1188.543z"/>
	<path fill-rule="evenodd" clip-rule="evenodd" fill="#FFFFFF" d="M885.463,1079.345c2.085,10.403,4.228,20.573,6.147,30.798
		c1.813,9.658,3.114,19.422,5.257,29.013c0.575,2.583,2.893,5.866,5.224,6.795c20.056,7.976,40.306,15.452,60.468,23.146
		c14.166,5.407,28.138,11.37,42.487,16.202c7.665,2.587,15.954,3.308,25.941,5.252c-1.935-9.46-2.975-16.56-4.865-23.432
		c-7.656-27.795-15.568-55.521-23.407-83.267c-1.025-3.632-2.288-6.597-7.216-6.515c-35.562,0.59-71.128,0.934-106.694,1.388
		C887.988,1078.735,887.176,1079.016,885.463,1079.345z"/>
	<path fill-rule="evenodd" clip-rule="evenodd" fill="#FFFFFF" d="M1074.311,942.473c-17.145-37.819-34.284-75.648-52.014-114.77
		c-32.074,17.793-62.736,34.812-93.786,52.043c2.036,4.367,3.777,7.984,5.417,11.641c7.337,16.348,14.533,32.757,22.073,49.017
		c0.947,2.046,3.598,4.7,5.479,4.715c37.021,0.28,74.043,0.208,111.065,0.208C1073.136,944.374,1073.721,943.421,1074.311,942.473z"
		/>
	<path fill-rule="evenodd" clip-rule="evenodd" fill="#FFFFFF" d="M236.919,1188.819c-9.826-20.037-19.75-38.928-28.46-58.369
		c-13.041-29.091-23.01-59.308-30.674-90.279c-3.242-13.102-3.427-13.01-16.646-12.942c-11.519,0.059-23.037,0.006-35.928,0.006
		c9.275,30.076,17.469,58.156,26.648,85.906c6.365,19.249,13.995,38.081,21.258,57.016c2.057,5.368,4.649,10.553,7.362,15.626
		c0.735,1.383,2.8,2.887,4.271,2.901C202.064,1188.887,219.378,1188.819,236.919,1188.819z"/>
	<path fill-rule="evenodd" clip-rule="evenodd" fill="#FFFFFF" d="M129.407,703.497c-2.901,6.757-5.592,12.526-7.886,18.46
		c-13.984,36.104-20.835,73.546-21.091,112.266c-0.037,5.527,1.348,8.274,7.047,9.967c12.279,3.652,24.25,8.338,36.358,12.556
		c1.964,0.682,4,1.175,6.483,1.896c0-5.339,0.267-10.002-0.045-14.64c-2.108-31.373,1.942-61.962,11.618-91.816
		c1.839-5.673,4.259-11.196,6.888-16.56c1.787-3.637,1.032-6.055-2.105-8.092C154.66,719.767,142.626,712.019,129.407,703.497z"/>
	<path fill-rule="evenodd" clip-rule="evenodd" fill="#FFFFFF" d="M956.74,712.028c-17.125-26.696-33.806-52.696-51.09-79.648
		c-5.649,7.337-10.572,13.488-15.225,19.829c-10.234,13.972-20.478,27.938-30.329,42.172c-1.262,1.818-1.311,5.828-0.149,7.768
		c8.874,14.861,18.121,29.506,27.484,44.068c0.803,1.247,3.889,2.485,4.914,1.924C913.654,736.394,934.822,724.391,956.74,712.028z"
		/>
	<path fill-rule="evenodd" clip-rule="evenodd" fill="#FFFFFF" d="M862.404,1130.367c-2.336-10.943-4.218-20.09-6.259-29.196
		c-1.17-5.198-3.187-10.286-3.758-15.534c-0.647-5.924-3.448-7.065-8.864-7.051c-21.214,0.043-42.418-0.639-63.623-0.571
		c-22.024,0.059-39.783-8.933-54.188-24.916c-4.104-4.552-8.268-6.171-14.337-6.462c-27.364-1.32-54.694-3.308-82.036-5.024
		c-2.102-0.126-4.215-0.015-6.72,1.383C701.886,1071.878,781.15,1100.76,862.404,1130.367z"/>
	<path fill-rule="evenodd" clip-rule="evenodd" fill="#FFFFFF" d="M195.837,589.854c12.305,13.812,23.657,26.546,34.914,39.179
		c27.768-17.401,55.195-34.58,82.928-51.957c-6.494-11.587-13.162-23.77-20.247-35.704c-0.698-1.176-4.321-1.727-5.97-1.055
		c-13.642,5.542-27.715,10.386-40.532,17.481C229.603,567.39,213.282,578.793,195.837,589.854z"/>
	<path fill-rule="evenodd" clip-rule="evenodd" fill="#FFFFFF" d="M555.163,970.538c-15.548-11.331-26.989-12.328-38.932-4.053
		c-7.431,5.16-9.764,13.087-10.536,21.14c-2.483,25.884,6.033,48.29,22.771,67.926c8.979,10.528,19.149,19.04,33.274,21.207
		c12.412,1.91,23.715-4.895,27.603-16.821c1.632-5.01,2-10.446,2.841-15.703c0.924-5.799-1.098-7.864-7.383-7.278
		c-12.364,1.165-24.701,1.271-36.705-3.453c-11.882-4.667-16.337-12.41-14.182-25.071c2.106-12.376,9.576-21.706,16.509-31.417
		C551.894,974.949,553.415,972.922,555.163,970.538z"/>
	<path fill-rule="evenodd" clip-rule="evenodd" fill="#FFFFFF" d="M515.326,616.739c-0.604-13.464-1.025-25.55-1.833-37.612
		c-0.097-1.446-2.031-3.23-3.555-4.067c-18.487-10.17-36.611-21.163-55.748-29.943c-14.758-6.771-30.816-10.717-46.849-16.1
		c-0.496,2.684-0.909,3.531-0.747,4.246c2.754,12.076,5.402,24.184,8.572,36.144c0.542,2.061,3.153,4.643,5.207,5.073
		c27.545,5.818,52.406,17.855,76.401,32.069C502.399,609.886,508.236,612.86,515.326,616.739z"/>
	<path fill-rule="evenodd" clip-rule="evenodd" fill="#FFFFFF" d="M623.829,645.457c-1.853,13.135-3.526,24.506-4.958,35.909
		c-0.155,1.194,0.81,2.878,1.77,3.807c15.737,15.297,31.557,30.507,47.367,45.731c0.136,0.126,0.387,0.141,1.011,0.344
		c5.869-8.207,11.817-16.53,18.315-25.618C668.642,684.031,649.553,662.646,623.829,645.457z"/>
</g>
</svg>
