<svg xmlns="http://www.w3.org/2000/svg" viewBox="0 0 307.313 323.84">
  <g id="Group_35" data-name="Group 35" transform="translate(-168.41 -43.91)">
    <g id="Under_Layer" data-name="Under Layer" transform="translate(42 27)">
      <g id="Group_18" data-name="Group 18">
        <path id="Path_54" data-name="Path 54" d="M263.645,286.59a63.462,63.462,0,0,1-20.622-3.144A34.7,34.7,0,0,1,222.951,266.6a43.772,43.772,0,0,1-2.9-6.421c-1.777-5.153-.908-10.119,2.582-14.763,1.382-1.836,2.842-3.627,4.253-5.359.874-1.072,1.747-2.144,2.6-3.229l.136-.169a10.62,10.62,0,0,0,1.053-1.683c-1.441-.8-2.767-1.592-3.981-2.315a28.612,28.612,0,0,0-4.72-2.516.984.984,0,0,0-.183-.014,14.505,14.505,0,0,0-4,1.294,33.533,33.533,0,0,1-13.328,3.119,31.965,31.965,0,0,1-11.995-2.5c-17.6-7.143-27.221-22.525-26.389-42.2.5-11.814.78-18.55,6.34-24.528-2.209-.167-4.252-.458-5.316-.609-.271-.039-.465-.067-.563-.078l-.1-.007-.049-.011c-14.176-2.116-24.434-7.233-31.361-15.643-2.256-2.741-4.6-9.051-4.858-9.761l-.711-1.944,1.778-1.061a39.243,39.243,0,0,1,5-2.357c.505-.21,1-.415,1.471-.619,5.873-2.572,10.651-6.685,15.709-11.041l1.086-.933q1.714-1.476,3.421-2.975c5.2-4.545,10.542-9.217,16.608-12.99-8.593-2.559-15.363-5.888-21.047-10.316a37.617,37.617,0,0,1-14.751-25.4c-1.417-10.45.329-19.363,5.338-27.247a41.5,41.5,0,0,1,24.038-18.079,9.586,9.586,0,0,1,2.722-.33c2.859.011,4.07,1.384,4.539,2.2s1.038,2.551-.387,5c-.421.736-.868,1.474-1.316,2.21a33.591,33.591,0,0,0-2.953,5.616,16.95,16.95,0,0,0-.246,12.026c2.008,4.156,3.752,6.7,5.646,8.23l.089.074a11.248,11.248,0,0,0,1.2.836c.242.144.445.272.614.393a20.835,20.835,0,0,0,5.8,2.707,65.188,65.188,0,0,0,17.222,2.131c2.605,0,5.276-.117,8.166-.359a144.5,144.5,0,0,0,15.549-2.145A7.875,7.875,0,0,0,226.787,62,13.653,13.653,0,0,1,229.62,60.8a16.833,16.833,0,0,1,4.39-.593,19.164,19.164,0,0,1,11.354,4.06c3.348,2.415,5.907,3.4,8.837,3.4.161,0,.325,0,.49-.008,9.438-.337,17.953-.694,26.63-1.647,5.141-.573,10.447-1.252,15.766-2.02a3.3,3.3,0,0,0,2.546-1.519c2.477-3.441,10.011-7.348,10.083-7.381a16.217,16.217,0,0,1,6.558-1.244,19.686,19.686,0,0,1,7.044,1.268,17.416,17.416,0,0,1,7,4.667,43.3,43.3,0,0,1,3.37,4.765l.744,0c5.467,0,11.056-.367,16.462-.723,1.986-.131,3.972-.262,5.961-.376,3.5-.2,7.055-.745,10.495-1.269q1.321-.2,2.644-.4a45.056,45.056,0,0,0,14.086-4.452c2.274-1.159,7.566-4.56,7.668-11.133.075-4.777-1.306-9.191-2.767-13.865l-.461-1.478c-.159-.523-.372-1.057-.6-1.623a12.776,12.776,0,0,1-1.2-5,4.531,4.531,0,0,1,4.566-4.82,5.55,5.55,0,0,1,.943.083c4.788.8,9.869,1.819,14.562,4.565A39.631,39.631,0,0,1,422.016,40.1,38.45,38.45,0,0,1,426.6,59.417a36.529,36.529,0,0,1-8.264,22.023c-4.667,5.836-10.872,10.616-18.968,14.61a66.691,66.691,0,0,1-15.025,5.284,63.683,63.683,0,0,1,12.143,8.246c1.211,1.026,2.409,2.066,3.607,3.1,3.182,2.763,6.473,5.621,9.918,8.093a57.123,57.123,0,0,0,10.417,5.652,37.952,37.952,0,0,1,7.451,4.059c3.445,2.554,4.289,6.383,2.318,10.508-3.842,8.05-10.286,14.076-19.153,17.907a56.425,56.425,0,0,1-16.874,4.433c-3.735.369-8.167.75-12.675.772h-.272a41.709,41.709,0,0,1-6.034-.414l3.853,10.889.313,1.292.083.193a38.308,38.308,0,0,1,1.782,5.426c.176.654.351,1.3.545,1.939a43.178,43.178,0,0,1,1.335,7.1c.17,1.3.33,2.539.558,3.76a24.962,24.962,0,0,1,.038,9.105c-.177.911-.316,1.827-.458,2.745a36.509,36.509,0,0,1-1.445,6.591,33.673,33.673,0,0,1-9.037,14.337c-5.276,4.816-11.673,8.647-20.743,12.421-3.529,1.465-14.761,5.276-15.238,5.438-.179.066-2.288.837-3.335,1.117-4.258,1.194-8.461,2.716-13.453,4.63-7.847,3.019-15.354,6.262-20.927,12.684a37.158,37.158,0,0,0-3.541,5.133c-.861,1.409-1.752,2.865-2.791,4.262-6.66,8.959-15.97,13.607-27.671,13.816C264.585,286.585,264.115,286.59,263.645,286.59Z" fill="#161615" fill-rule="evenodd"/>
      </g>
    </g>
    <g id="Layer_4" data-name="Layer 4" transform="translate(42 27)">
      <path id="Path_55" data-name="Path 55" d="M421.28,280.25H302.67c-9.62,0-5.02-10.45-5.02-10.45a36.7,36.7,0,0,1,3.29-4.78c5.21-6,12.41-9.1,19.95-12,4.91-1.89,9.05-3.39,13.23-4.56,1.09-.3,3.01-.99,3.52-1.18.99-.33,11.82-4.01,15.33-5.47,6.3-2.62,14.43-6.45,21.48-12.89a36.186,36.186,0,0,0,9.71-15.36,39.672,39.672,0,0,0,1.55-7.03c.14-.93.28-1.8.44-2.65a27.173,27.173,0,0,0-.03-10.01c-.22-1.18-.37-2.38-.54-3.65a45.413,45.413,0,0,0-1.42-7.51c-.19-.61-.35-1.24-.53-1.87a40.336,40.336,0,0,0-1.89-5.76l-.24-.96-.06-.25-.08-.24-2.51-7.08q1.17.06,2.37.06h.29c4.61-.02,9.12-.41,12.92-.79a58.07,58.07,0,0,0,17.6-4.62c9.45-4.08,16.32-10.51,20.43-19.13,2.46-5.15,1.27-10.35-3.09-13.59a40.346,40.346,0,0,0-7.94-4.34,54.575,54.575,0,0,1-9.96-5.39c-3.35-2.41-6.451-5.1-9.74-7.95q-1.8-1.575-3.63-3.13a73.619,73.619,0,0,0-7.31-5.48,68.571,68.571,0,0,0,9.69-3.9c8.43-4.16,14.91-9.16,19.81-15.29a38.937,38.937,0,0,0,8.81-23.5,41,41,0,0,0-4.87-20.56A42.093,42.093,0,0,0,408.04,21.9c-5.05-2.96-10.39-4.03-15.42-4.87a7.421,7.421,0,0,0-1.34-.12,7.089,7.089,0,0,0-7.07,7.29,14.992,14.992,0,0,0,1.39,5.96c.2.52.4,1,.52,1.41.16.52.32,1.02.47,1.51,1.4,4.48,2.72,8.71,2.66,13.08-.09,5.22-4.44,7.99-6.31,8.94a42.268,42.268,0,0,1-13.31,4.21c-.89.13-1.77.27-2.66.4-3.54.54-6.88,1.05-10.26,1.25-2,.11-3.99.24-5.98.37-5.16.34-10.49.69-15.68.72a39.685,39.685,0,0,0-2.82-3.88,19.823,19.823,0,0,0-8-5.38,22.273,22.273,0,0,0-7.961-1.44,18.759,18.759,0,0,0-7.6,1.47c-.07.03-8.16,4.16-11.05,8.18a.943.943,0,0,1-.86.52c-5.32.76-10.6,1.44-15.72,2.01-8.58.94-17.05,1.3-26.43,1.63-.15.01-.28.01-.41.01-2.39,0-4.45-.82-7.37-2.93a21.857,21.857,0,0,0-12.82-4.53,19.432,19.432,0,0,0-5.05.68,16.054,16.054,0,0,0-3.33,1.39,8.163,8.163,0,0,1-1.34.61,143.988,143.988,0,0,1-15.28,2.11c-2.83.23-5.44.35-7.97.35a62.515,62.515,0,0,1-16.57-2.05,18.336,18.336,0,0,1-5.04-2.36c-.27-.19-.52-.34-.73-.46a9.573,9.573,0,0,1-.88-.61l-.13-.11c-1.58-1.27-3.1-3.52-4.91-7.25a14.564,14.564,0,0,1,.29-10.2,31.424,31.424,0,0,1,2.74-5.18c.44-.73.9-1.49,1.35-2.28,2.04-3.51,1.12-6.19.38-7.47s-2.58-3.44-6.69-3.46a11.893,11.893,0,0,0-3.46.44,43.908,43.908,0,0,0-25.43,19.13c-5.34,8.4-7.2,17.86-5.7,28.92a40.007,40.007,0,0,0,15.7,27.04,60.6,60.6,0,0,0,16.93,9.11c-4.48,3.23-8.59,6.82-12.61,10.34q-1.7,1.485-3.41,2.96l-1.08.93c-4.91,4.23-9.55,8.22-15.09,10.65-.44.19-.93.39-1.42.6a39.915,39.915,0,0,0-5.32,2.52l-3.55,2.12,1.42,3.88c.45,1.23,2.81,7.5,5.27,10.5,7.34,8.91,18.11,14.31,32.93,16.52l.2.03.09.01c.11.01.25.04.44.06.27.04.61.09.99.14-3.46,5.73-3.74,12.46-4.16,22.42a47.255,47.255,0,0,0,6.64,27.13,44.4,44.4,0,0,0,21.3,17.49,34.535,34.535,0,0,0,12.94,2.69,35.8,35.8,0,0,0,14.28-3.31,26.063,26.063,0,0,1,2.87-1.07c.8.35,2.45,1.33,3.8,2.14.54.32,1.1.66,1.69,1-.71.89-1.44,1.78-2.16,2.67-1.43,1.75-2.9,3.56-4.31,5.43-4.02,5.35-5.02,11.1-2.95,17.08a45.782,45.782,0,0,0,3.06,6.79,36.857,36.857,0,0,0,3.18,4.97c0,.01.01.01.01.02,3.18,6.54-8.44,7.48-8.44,7.48H144.97c-6.87,0-12.44,6.32-12.44,14.11v32.28c0,7.79,5.57,14.11,12.44,14.11H421.28c6.87,0,12.44-6.32,12.44-14.11V294.36C433.72,286.57,428.15,280.25,421.28,280.25Zm-140.69,0a33.221,33.221,0,0,1-15.58,3.83c-.45.01-.91.01-1.36.01a61.761,61.761,0,0,1-19.83-3.01c-.74-.25-1.47-.52-2.18-.83a32.066,32.066,0,0,1-16.49-14.83,41.892,41.892,0,0,1-2.74-6.06c-1.6-4.64-.59-8.7,2.22-12.44,2.19-2.91,4.56-5.68,6.82-8.54a1.01,1.01,0,0,0,.13-.16,14.907,14.907,0,0,0,1.69-2.84c.24-.49.46-.99.67-1.48-5.37-2.8-9.54-5.84-11.5-6.21a3.31,3.31,0,0,0-.64-.06c-3.46,0-8.77,4.42-17.33,4.42a29.2,29.2,0,0,1-11.06-2.32c-16.61-6.74-25.61-21.33-24.83-39.78.64-15.22.98-20.58,10.87-27.23-1.04.11-2.08.17-3.12.21-.28.01-.56.01-.85.01a70.415,70.415,0,0,1-8.72-.8c-11.52-1.72-22.28-5.63-29.8-14.76-2.05-2.49-4.44-9.03-4.44-9.03a55.442,55.442,0,0,1,6.18-2.83c6.67-2.92,12-7.71,17.43-12.37,7.46-6.42,14.63-13.25,23.45-17.88.54-.29.35-.67.41-1.09-9.03-2.23-17.59-5.43-24.97-11.18a34.968,34.968,0,0,1-13.81-23.76c-1.24-9.14-.03-17.7,4.97-25.57a38.913,38.913,0,0,1,22.63-17.02,7.205,7.205,0,0,1,2.02-.23c2.44.01,3.21,1.35,1.99,3.45-1.55,2.71-3.35,5.25-4.45,8.21a19.452,19.452,0,0,0-.21,13.87c2.3,4.78,4.23,7.46,6.38,9.2l.01.01a13.548,13.548,0,0,0,1.55,1.09,5.585,5.585,0,0,1,.5.32,23.381,23.381,0,0,0,6.56,3.06,68.187,68.187,0,0,0,17.88,2.22c2.78,0,5.58-.14,8.37-.37a147.966,147.966,0,0,0,15.81-2.18c1.85-.35,3.24-1.6,5.04-2.08a14.262,14.262,0,0,1,3.75-.51,16.921,16.921,0,0,1,9.89,3.59c3.19,2.3,6.3,3.87,10.3,3.87.19,0,.39,0,.58-.01,8.96-.32,17.89-.68,26.81-1.66q7.95-.885,15.85-2.03a5.766,5.766,0,0,0,4.23-2.55c1.9-2.64,8.51-6.29,9.08-6.55a13.768,13.768,0,0,1,5.519-1.02,17.1,17.1,0,0,1,6.141,1.1,15.076,15.076,0,0,1,6,3.96,45.211,45.211,0,0,1,3.47,4.97,1.65,1.65,0,0,0,1.6.67h.95c7.53,0,15.04-.67,22.56-1.1,4.51-.26,8.93-1.04,13.36-1.69a47.544,47.544,0,0,0,14.86-4.7c4.73-2.41,8.93-6.97,9.03-13.32.09-5.71-1.71-10.85-3.34-16.12-.59-1.94-1.71-3.74-1.69-5.86.02-1.45.809-2.35,2.07-2.35a3.035,3.035,0,0,1,.51.05c4.77.8,9.44,1.75,13.729,4.26A37,37,0,0,1,419.8,41.27a35.97,35.97,0,0,1,4.3,18.07,33.792,33.792,0,0,1-7.72,20.54c-4.94,6.18-11.21,10.52-18.12,13.93a65.171,65.171,0,0,1-19.96,6.08c-.66.1-1.29.34-2.39.64a55.729,55.729,0,0,1,18.96,10.96c4.52,3.83,8.86,7.86,13.68,11.32a58.93,58.93,0,0,0,10.87,5.91,35.356,35.356,0,0,1,6.97,3.78c2.55,1.89,2.94,4.51,1.55,7.42-3.79,7.94-10.02,13.29-17.89,16.69a53.621,53.621,0,0,1-16.12,4.24c-4.15.41-8.27.74-12.45.76h-.26a35.352,35.352,0,0,1-9.88-1.29l5.3,14.98.46,1.89c.01-.04.03-.09.04-.13a60.047,60.047,0,0,1,2.23,7.1c1.05,3.46,1.17,7.08,1.83,10.6a22.663,22.663,0,0,1,.04,8.17c-.58,2.99-.79,6.06-1.81,8.99a31.233,31.233,0,0,1-8.36,13.31c-5.86,5.35-12.76,8.94-20.02,11.96-3.49,1.45-15.08,5.38-15.08,5.38s-2.21.81-3.18,1.07c-4.64,1.3-9.19,2.98-13.7,4.71-8.11,3.12-16.03,6.59-21.92,13.38-2.55,2.92-4.15,6.45-6.45,9.54A31.158,31.158,0,0,1,280.59,280.25Z" fill="#fff"/>
      <path id="Path_56" data-name="Path 56" d="M280.59,280.25a33.221,33.221,0,0,1-15.58,3.83c-.45.01-.91.01-1.36.01a61.761,61.761,0,0,1-19.83-3.01c-.74-.25-1.47-.52-2.18-.83Z" fill="#8c8b8b"/>
    </g>
    <g id="Logo" transform="translate(42 27)">
      <path id="Path_57" data-name="Path 57" d="M381.247,203.134c-.58,2.985-.794,6.055-1.809,8.986a31.24,31.24,0,0,1-8.361,13.308c-5.862,5.352-12.765,8.941-20.017,11.965-3.5,1.45-15.08,5.381-15.08,5.381s-2.213.8-3.184,1.07c-4.642,1.3-9.193,2.977-13.7,4.711-8.109,3.115-16.026,6.581-21.92,13.376-2.543,2.924-4.146,6.451-6.444,9.536-6.436,8.65-15.079,12.628-25.714,12.811a62.585,62.585,0,0,1-21.188-3,32.356,32.356,0,0,1-18.667-15.66,40.434,40.434,0,0,1-2.741-6.053c-1.6-4.65-.6-8.706,2.215-12.446,2.19-2.909,4.565-5.68,6.825-8.536.046-.054.084-.106.13-.16a15.571,15.571,0,0,0,1.687-2.841c.558-1.152,1.038-2.351,1.466-3.358.23.106.366.16.45.19.291.1-.06-.121.8.374a50.322,50.322,0,0,1-3.26,6.429c-3.344,3.977-6.169,7.237-8.406,12a10.045,10.045,0,0,0-.809,5.466,9.517,9.517,0,0,0,.687,2.612c.016.03.022.061.038.091A45.891,45.891,0,0,0,229.534,269l.031.038a24.747,24.747,0,0,0,1.657,1.954l.022.03a32.625,32.625,0,0,0,13.85,8.674,49.49,49.49,0,0,0,9.742,2.138,73.163,73.163,0,0,0,12.415.344l.878-.047a26.821,26.821,0,0,0,19.125-9.451,38.547,38.547,0,0,0,8.353-16.576,5.53,5.53,0,0,1,1.4-2.893c-.268,2.429-.482,4.4-.74,6.809a49.343,49.343,0,0,1,16.552-10.932c5.046-2.138,10.238-3.916,15.453-5.657,7.582-2.528,15.231-4.879,22.607-8.033.13-.053.252-.106.382-.161,2.787-1.206,5.5-2.518,8.115-3.976a64.747,64.747,0,0,0,9.147-6.147,25.975,25.975,0,0,0,2.718-2.535,27.886,27.886,0,0,0,2.146-2.618,34.642,34.642,0,0,0,4.779-9.842,41.393,41.393,0,0,0,1.52-14.346,56.94,56.94,0,0,0-2.474-15.453,4.152,4.152,0,0,1-.1-2.931,1.208,1.208,0,0,1,.038-.13,59.559,59.559,0,0,1,2.23,7.1c1.046,3.458,1.169,7.078,1.825,10.6A22.412,22.412,0,0,1,381.247,203.134Z" fill="#171716" fill-rule="evenodd"/>
      <path id="Path_58" data-name="Path 58" d="M396.388,132.824a100.251,100.251,0,0,0-17.363-6.207c-4.977-1.336-10.078-2.26-14.986-3.863-3.215-1.054-6.308-2.451-9.514-3.527a39.678,39.678,0,0,1-10.338-5.215c-.961-.68-1.664-1.726-3.305-2.268,1,1.81,1.847,3.237,2.588,4.719a100.692,100.692,0,0,0,14.819,21.752c6.444,7.291,14.469,10.636,24.188,10.482a62.442,62.442,0,0,0,14.422-1.4,38.205,38.205,0,0,0,11.285-4.52c1.6-1.023,2.9-2.809,5.107-2.771a16.312,16.312,0,0,0,5.4-1.138C406.748,138.314,403.42,136.2,396.388,132.824ZM365.4,142.162l-.023-.016a36.115,36.115,0,0,1-5.673-5.214c-1.427-1.6-6.314-7.658-7.275-9.047-2.184-3.169-4.1-6.529-6.369-10.216,1.543.672,2.726,1.176,3.9,1.695a127.333,127.333,0,0,0,19.148,6.857c5.322,1.388,10.7,2.572,16,4.015,4.482,1.221,21.881,8.4,23.645,9.8a19.355,19.355,0,0,1-6.323,3.535,53.141,53.141,0,0,1-27.973,2.466,20.53,20.53,0,0,1-7.529-2.854C366.413,142.864,365.909,142.52,365.4,142.162Z" fill="#171716" fill-rule="evenodd"/>
      <path id="Path_59" data-name="Path 59" d="M299.542,93.109c-1.273-.15-2.556-.25-3.818-.459-4.467-.742-8.817.159-13.137,1.024a68.315,68.315,0,0,0-13.272,3.82c-.977.412-1.846-.47-2.633-.819a39.777,39.777,0,0,0-14.3-3,27.15,27.15,0,0,0-9.862,1.244,4.481,4.481,0,0,1-3.208.409,53.571,53.571,0,0,1,5.332-2.105,34.612,34.612,0,0,1,23.682,2.119,1.924,1.924,0,0,0,1.553-.076c7.85-2.648,15.834-4.53,24.2-4.171A8.753,8.753,0,0,1,299.542,93.109Z" fill="#171716" fill-rule="evenodd"/>
      <path id="Path_60" data-name="Path 60" d="M426.388,132.7a35.076,35.076,0,0,0-6.97-3.78,59.129,59.129,0,0,1-10.859-5.91c-4.831-3.46-9.161-7.49-13.681-11.32a55.765,55.765,0,0,0-18.97-10.96c1.111-.3,1.74-.54,2.39-.64a65.153,65.153,0,0,0,19.971-6.08c6.909-3.41,13.179-7.75,18.119-13.93a33.781,33.781,0,0,0,7.71-20.54,35.846,35.846,0,0,0-4.289-18.07,37.014,37.014,0,0,0-14.281-15.05c-4.29-2.51-8.96-3.46-13.73-4.26a2.087,2.087,0,0,0-2.58,2.3c-.02,2.12,1.091,3.92,1.69,5.86,1.63,5.27,3.43,10.41,3.34,16.12-.1,6.35-4.3,10.91-9.03,13.32a47.5,47.5,0,0,1-14.87,4.7c-4.42.65-8.84,1.43-13.36,1.69-7.83.45-15.65,1.16-23.5,1.1a1.642,1.642,0,0,1-1.6-.67,45.206,45.206,0,0,0-3.47-4.97,15.051,15.051,0,0,0-6.01-3.96c-4.09-1.59-8.96-1.31-11.65-.08-.571.26-7.18,3.91-9.08,6.55a5.766,5.766,0,0,1-4.23,2.55c-5.28.76-10.55,1.44-15.85,2.03-8.92.98-17.85,1.34-26.82,1.66-4.29.16-7.53-1.45-10.87-3.86-3.99-2.87-8.5-4.47-13.64-3.08-1.8.48-3.19,1.73-5.04,2.08a148.317,148.317,0,0,1-15.81,2.18c-8.84.74-17.64.48-26.25-1.85a23.252,23.252,0,0,1-6.56-3.06c-.14-.1-.3-.2-.5-.32a13.548,13.548,0,0,1-1.55-1.09l-.01-.01c-2.15-1.74-4.08-4.42-6.38-9.2a19.4,19.4,0,0,1,.21-13.87c1.1-2.96,2.9-5.5,4.45-8.21,1.22-2.1.45-3.44-1.99-3.45a7.205,7.205,0,0,0-2.02.23,38.913,38.913,0,0,0-22.63,17.02c-5.01,7.87-6.21,16.43-4.97,25.57a34.968,34.968,0,0,0,13.81,23.76c7.38,5.75,15.94,8.95,24.97,11.18-.06.42.12.8-.41,1.09-8.83,4.63-15.99,11.46-23.46,17.88-5.42,4.66-10.75,9.45-17.42,12.37a55.445,55.445,0,0,0-6.18,2.83s2.39,6.54,4.43,9.03c7.53,9.13,18.29,13.04,29.81,14.76a63.345,63.345,0,0,0,9.57.79,69.112,69.112,0,0,0,15.75-2.55,113.01,113.01,0,0,0,21.26-8.48c.92-.47,1.62-.84,2.05-1.08.06-.03.12-.06.17-.09.23-.13.35-.2.35-.2l.01-.01c.17-.1.33-.2.49-.3a53.407,53.407,0,0,0,12.83-10.92c1.61-1.8,6.77-8.51,7.55-10.48.52-1.31.66-2.06-.65-3.04-3.97-2.94-7.09-6.83-10.9-9.98-.55-.46-1.12-.9-1.7-1.32-2.73-1.97-5.54-3.8-8.96-4.1-.89-.07-4.05-.06-4.05-.06a57.767,57.767,0,0,1,7.9-10.01c2-1.91,2.92-3.24,2.14-6.5a30.334,30.334,0,0,1,3.27-23.11c3.57-6.02,9.99-7.81,16.22-4.55a21.136,21.136,0,0,1,5.47,3.62,32.132,32.132,0,0,1-4.83,1.32,155.474,155.474,0,0,0,29.18.36c9.7-.89,19.43-1.55,29.11-3.4.189,1.12-.33,11.56,1.78,16.31-.309-5.6-1.091-10.68.46-15.68.61-2.79,5.03-6.46,7.8-8.47.99-.73,1.771-1.24,2.08-1.42a11.354,11.354,0,0,1,4.26-1.16h.25c5.56.24,8.47,1.97,12.07,5.94a10.959,10.959,0,0,1,2.04,3.49c-.95,0-1.71-.04-2.45.01-3.04.18-5.62,1.11-7.519,3.76a18.632,18.632,0,0,0-3.161,9.15c-.5,5-.69,10.15,1.17,15,1.25,3.28,2.491,6.75,6.76,7.28a40.377,40.377,0,0,0,5.28.55c5.28-.06,10.55-.05,15.82-.01,5.881.03,11.7-.63,17.55-1.11,2.77-.23,5.59-1.02,8.35-.43a45.127,45.127,0,0,1,11.94,4.57c6.11,3.3,11.16,7.98,16.41,12.41,4.26,3.6,8.59,7.14,13.56,9.73,3.06,1.62,6.26,2.97,9.39,4.46a9.254,9.254,0,0,1,3.3,2.29,3.2,3.2,0,0,1,.631,2.71,11.159,11.159,0,0,1-1.411,3.4c-5.83,10.22-15.38,14.83-26.22,17.36-6.35,1.49-12.86,1.45-19.36,1.34-6.69-.11-12.9-1.49-18.07-6.08-.17-.15-.93-.04-.93-.04,1.05,2.29,3.12,3.57,5.15,4.68a27.628,27.628,0,0,0,5.42,2.23,35.626,35.626,0,0,0,10.14,1.29c4.17-.02,8.3-.35,12.45-.76a53.635,53.635,0,0,0,16.121-4.24c7.869-3.4,14.1-8.75,17.889-16.69C429.328,137.21,428.938,134.59,426.388,132.7Zm-193.02-5.39c1.22.57,1.44,1.4.82,2.65-2.82,5.71-10.17,13.38-14.79,16.78-1.55,1.13-2.78,1.78-3.45,1.74a.17.17,0,0,1-.07-.01c-2.08-.18-3.85-1.68-5.44-3.15a15.656,15.656,0,0,1-1.82-2.1c-.03-.04-.07-.1-.12-.16a.55.55,0,0,0-.07-.09c-.12-.16-.25-.34-.37-.52a.01.01,0,0,1-.01-.01,10.657,10.657,0,0,1-1.4-2.78c-.07-.22-.13-.45-.18-.67a2.866,2.866,0,0,1-.05-.31l-.01-.01c-.14-.8-.28-1.59-.43-2.39a9.273,9.273,0,0,1,.01-1.97,11.535,11.535,0,0,1,.57-2.8,13.485,13.485,0,0,1,5.23-7.23,13.34,13.34,0,0,1,12.94-.93C227.628,124.6,230.5,125.97,233.368,127.31Zm-27.89,12.57c.02.08.04.17.07.26a9.8,9.8,0,0,0,1.21,2.37c.12.19.24.35.35.51a7.51,7.51,0,0,1,.72.93c.02.02.02.03.02.03.29.5.31,1.01-.54,1.53a3.4,3.4,0,0,1-.59.4c-1.54.64-3.31,1.25-5.14,1.83-3.95,1.23-8.14,2.27-10.69,2.9-2.48.61-5.21,1.49-8.29,1.99a25.092,25.092,0,0,1-9.43-.16c-.4-.09-.8-.18-1.21-.29a41.179,41.179,0,0,1-7.52-2.79,33.481,33.481,0,0,1-5.62-3.48c.38-.11,6.47-3.7,9.19-5.44a129.116,129.116,0,0,0,15.69-11.76c.32-.28.64-.55.97-.81a28.928,28.928,0,0,1,10.43-5.35,32.124,32.124,0,0,1,5.61-1.03,4.262,4.262,0,0,1,.87-.01c.97.11,1.4.71,1.51,2.14.24,3.18.89,6.33,1.37,9.49a22.1,22.1,0,0,0,.51,4.06c.14.69.26,1.56.42,2.27v.01A2.877,2.877,0,0,0,205.478,139.88Zm-2.1-19.72c-.61-.08-1.21-.14-1.8-.17-6.55-.38-12.04,2.02-16.96,5.79-3.68,2.81-7.25,5.78-10.96,8.55-2.15,1.61-4.36,3.16-6.66,4.56-.28.18-.57.36-.86.52-3.1,1.84-6.1,3.98-9.43,5.23a26.578,26.578,0,0,1-8.42,1.51c-.95.02-1.9,0-3.44,0a7.24,7.24,0,0,0,4.24,1.16,17.637,17.637,0,0,0,5.51-.25,4.508,4.508,0,0,1,3.82.9c5.72,3.86,11.85,6.78,18.9,6.94,5.41.14,16.7-3,24.26-5.48,4.18-1.37,7.22-2.54,7.49-2.85,1.81.73,3.53,2.01,5.78,3.14-.45.24-.9.48-1.34.71-15.29,8.02-24.81,10.44-34.36,11.42a27.416,27.416,0,0,1-4.36.04,51.491,51.491,0,0,1-7.01-.95c-2.87-.57-5.59-1.28-7.8-1.89-1.77-.5-3.49-1.07-5.17-1.73a51.643,51.643,0,0,1-6.14-2.85c-.45-.24-.91-.5-1.37-.77-4.47-2.61-8.82-5.6-11.18-10.14-.43-.83-.87-1.44-1.08-2l-.75-1.98s.89-.36,2.08-.81c11.82-4.48,20.14-13.75,29.61-21.46,1.96-1.59,8.62-6.59,8.69-6.62,4.13-2.55,7.7-6.19,13.45-4.84a64.44,64.44,0,0,0,13.32,1.71c2.63.06,5.73.32,8.44.49-1.25,3.03-3.51,5.36-5.01,7.96A10.6,10.6,0,0,0,203.378,120.16ZM221,71.72a38.263,38.263,0,0,0-3.2,17.22,20.055,20.055,0,0,0,1.05,6.19c.23.62.49,1.31-.11,1.92-2.39,2.68-4.79,5.35-7.18,8.04-.5.56-1.13.37-1.72.39a102.427,102.427,0,0,1-21.85-1.39c-9.78-1.7-19.33-4.26-27.92-9.6a42.757,42.757,0,0,1-12.2-11.58c-.22-.31,0,0-.75-1.08a26.135,26.135,0,0,1-4.1-10.93c-.04-.14-.28-1.48-.39-2.45-.61-7.33.06-14.39,3.49-21.1a38.282,38.282,0,0,1,13.41-14.54,32.434,32.434,0,0,1,9.32-4.22c1.26-.35,1.57-.25,2.19.53-.41,1.9-1.74,3.34-2.65,4.96a24.054,24.054,0,0,0-2.29,18.19c.03.12.36,1.25.38,1.28,1.31,3.67,4.4,6.78,6.5,8.57.11.1,2.12,1.66,2.12,1.66h.01a27.45,27.45,0,0,0,4.81,2.47,51.011,51.011,0,0,0,15.77,3.32,110.925,110.925,0,0,0,25.33-1.63,3.377,3.377,0,0,1,2.28.04C222.8,69.41,221.828,70.36,221,71.72Zm144.87,28.04c-9.99,1.07-20.01,1.43-30.04,1.55a97.448,97.448,0,0,1-11.83-.85c-2.26-.26-2.72-2.47-3.74-4a28.751,28.751,0,0,1-1.48-4.93c-.25-1.44-.45-12.31,1.07-16.85.07-.2.14-.39.211-.55a10.31,10.31,0,0,1,1.029-1.93,7.162,7.162,0,0,1,1.36-1.53l.321-.25a6.948,6.948,0,0,1,4.019-1.29c4.99-.19,9.99-.5,14.981-.52a160.559,160.559,0,0,0,30.409-2.77c6.33-1.25,12.53-3.08,17.83-7.12,1.56-1.19,2.16-.94,4.89-6.38a17.261,17.261,0,0,0,1.18-5.88l.03-.06c.07-6.06-1.839-11.63-3.81-17.21a14,14,0,0,1-1.16-4.9,5.329,5.329,0,0,1,3.11-.05,67.046,67.046,0,0,1,10.97,4.22A32.562,32.562,0,0,1,417,40.28a36.272,36.272,0,0,1,5.03,14.52,30.929,30.929,0,0,1-.9,12.62,28.977,28.977,0,0,1-2.12,5.31,38.837,38.837,0,0,1-8.09,10.49A55.373,55.373,0,0,1,392,94.52C383.528,97.68,374.738,98.82,365.868,99.76Z" fill="#161615" fill-rule="evenodd"/>
      <path id="Path_61" data-name="Path 61" d="M207.828,143.948a10.656,10.656,0,0,1-.718-.924A8.705,8.705,0,0,1,207.828,143.948Z" fill="#27130e" fill-rule="evenodd"/>
      <path id="Path_62" data-name="Path 62" d="M321.458,129.75c.22-4.64-.23-9.16-2.62-13.25-.06-.1-.12-.2-.18-.29-2.12-3.49-5.01-5.74-9.439-5.92-3.041-.11-5.67,1.16-8.791,1.83.74-1.15,1.3-2.03,1.929-2.99a5.985,5.985,0,0,0-3.909-.54,15.487,15.487,0,0,0-8.72,5.35c-.65.73-1.26,1.49-1.85,2.27a53.057,53.057,0,0,0-6,10.97,6.976,6.976,0,0,1-1.96,2.78,6.834,6.834,0,0,1-3.72,1.47c-2.46.29-4.83-.26-7.79-.29,3.49,3.75,6.96,6.73,11.51,6.99a12.637,12.637,0,0,0,4.35-.52c.05.62.12,1.09.12,1.55a18.439,18.439,0,0,0,25.76,17.05,18.5,18.5,0,0,0,6.89-5.26,17.62,17.62,0,0,0,4.1-13.64c-.25-2.05-1.25-3.87-1.43-5.92l.05-.06C321.028,131.56,321.4,130.96,321.458,129.75Zm-22.22,26.51c-7.66-1.57-14.14-9.37-13.66-17.02-.49-1.95.49-3.45,2.21-4.93,3.21-2.75,5.9-6.1,9.67-8.18,8.33-4.58,18.96-2.36,22.02,8.53C322.958,147.02,311.818,158.85,299.238,156.26Z" fill="#040505" fill-rule="evenodd"/>
      <path id="Path_63" data-name="Path 63" d="M299.238,156.26c-7.66-1.57-14.14-9.37-13.66-17.02-.49-1.95.49-3.45,2.21-4.93,3.21-2.75,5.9-6.1,9.67-8.18,8.33-4.58,18.96-2.36,22.02,8.53C322.958,147.02,311.818,158.85,299.238,156.26Z" fill="#fff" fill-rule="evenodd"/>
      <path id="Path_64" data-name="Path 64" d="M214.845,149.713c-16.079,8.589-25.868,11.116-35.7,12.124a26.7,26.7,0,0,1-4.36.046s-2.436-.17-3.289-.283c-.911-.121-3.72-.672-3.72-.672-2.863-.573-5.589-1.283-7.795-1.893-1.771-.5-3.489-1.069-5.176-1.726,0,0-2.462-.993-3.249-1.358-.746-.346-2.882-1.49-2.882-1.49-.458-.244-.916-.5-1.374-.771-4.467-2.611-8.82-5.6-11.178-10.139a17.047,17.047,0,0,1-1.084-2l-.749-1.986c.272-.171,2.085-.8,2.085-.8,11.811-4.483,20.133-13.759,29.6-21.462,1.961-1.6,8.627-6.589,8.7-6.627,4.131-2.543,7.7-6.185,13.446-4.833a64.783,64.783,0,0,0,13.322,1.71c2.626.053,5.735.313,8.437.488-1.87,4.519-5.963,7.475-6.5,12.117-7.345-.969-13.4,1.512-18.759,5.619-3.68,2.818-7.246,5.788-10.956,8.551L167,138.887c-.282.183-.572.358-.862.526-3.1,1.832-6.1,3.978-9.429,5.223a26.247,26.247,0,0,1-8.414,1.512c-.954.022-1.9,0-3.443,0a7.2,7.2,0,0,0,4.237,1.16,17.469,17.469,0,0,0,5.513-.244,4.494,4.494,0,0,1,3.825.892c5.711,3.863,11.849,6.78,18.895,6.948,8.414.206,30.991-7.466,31.747-8.337C210.875,147.3,212.6,148.583,214.845,149.713Z" fill="#6a250d" fill-rule="evenodd"/>
      <path id="Path_65" data-name="Path 65" d="M426.134,134.924a9.164,9.164,0,0,0-3.291-2.29c-3.131-1.5-6.33-2.849-9.4-4.459-4.97-2.6-9.292-6.131-13.551-9.735-5.253-4.428-10.3-9.108-16.416-12.407a45.018,45.018,0,0,0-11.941-4.573c-2.757-.588-5.581.2-8.352.428-5.841.48-11.666,1.145-17.545,1.107-5.269-.031-10.544-.046-15.82.015a39.3,39.3,0,0,1-5.284-.55c-4.267-.526-5.505-4-6.757-7.275-1.855-4.857-1.672-10-1.168-15a18.512,18.512,0,0,1,3.161-9.148c1.9-2.656,4.482-3.588,7.521-3.764.74-.045,1.5-.006,2.442-.006a10.76,10.76,0,0,0-2.038-3.49c-3.6-3.977-6.512-5.7-12.071-5.94a8.508,8.508,0,0,0-3.534.621,23.386,23.386,0,0,0-3.055,1.952c-2.764,2.008-7.184,5.68-7.8,8.475-1.542,4.993-.762,10.078-.457,15.683-2.108-4.75-1.589-15.195-1.779-16.317-9.682,1.856-19.408,2.512-29.1,3.4a155.4,155.4,0,0,1-29.189-.366,31.418,31.418,0,0,0,4.833-1.313,21.234,21.234,0,0,0-5.467-3.627c-6.23-3.26-12.651-1.466-16.224,4.551a30.333,30.333,0,0,0-3.268,23.111c.779,3.26-.138,4.588-2.138,6.5a57.844,57.844,0,0,0-7.9,10.017s3.16-.015,4.046.061c3.428.3,6.23,2.122,8.963,4.092,4.62,3.321,8.062,7.932,12.6,11.307,1.314.978,1.169,1.726.65,3.04-.779,1.969-5.933,8.672-7.543,10.482a53.925,53.925,0,0,1-13.323,11.216l-.008.008-.352.2c-.052.03-.106.06-.168.092-.434.244-1.13.61-2.053,1.077a112.822,112.822,0,0,1-21.263,8.489l43.656,70.921-.55.908c.291.1-.06-.121.8.374a50.322,50.322,0,0,1-3.26,6.429c-3.344,3.977-6.169,7.237-8.406,12a10.045,10.045,0,0,0-.809,5.466l.687,2.612c.016.03.022.061.038.091A45.891,45.891,0,0,0,229.534,269l.031.038,1.657,1.954.022.03a32.625,32.625,0,0,0,13.85,8.674,53.733,53.733,0,0,0,9.742,2.138,75.892,75.892,0,0,0,12.415.344l.878-.047a26.821,26.821,0,0,0,19.125-9.451,38.547,38.547,0,0,0,8.353-16.576,5.53,5.53,0,0,1,1.4-2.893c-.268,2.429-.482,4.4-.74,6.809a49.343,49.343,0,0,1,16.552-10.932c5.046-2.138,10.238-3.916,15.453-5.657,7.582-2.528,15.231-4.879,22.607-8.033.13-.053.252-.106.382-.161l8.115-3.976a64.747,64.747,0,0,0,9.147-6.147,25.975,25.975,0,0,0,2.718-2.535l2.146-2.618a34.642,34.642,0,0,0,4.779-9.842,41.393,41.393,0,0,0,1.52-14.346,56.94,56.94,0,0,0-2.474-15.453,4.152,4.152,0,0,1-.1-2.931l-.465-1.894-5.3-14.98a27.224,27.224,0,0,1-5.42-2.229c-2.031-1.107-4.1-2.389-5.147-4.681,0,0,.756-.106.932.046,5.169,4.589,11.376,5.971,18.072,6.078,6.5.106,13.01.145,19.354-1.344,10.841-2.527,20.393-7.139,26.218-17.355a11.122,11.122,0,0,0,1.414-3.4,6.6,6.6,0,0,0,.145-1.386C426.9,135.852,426.134,134.924,426.134,134.924Zm-104.675-5.176c-.062,1.213-.428,1.809-1.7,1.587l-.053.054c.183,2.046,1.183,3.871,1.435,5.925a17.618,17.618,0,0,1-4.1,13.636,18.569,18.569,0,0,1-6.887,5.26,18.446,18.446,0,0,1-25.767-17.049c.007-.466-.07-.931-.115-1.55-6.864,1.955-11.345-1.61-15.866-6.466,2.97.03,5.337.58,7.8.29a6.47,6.47,0,0,0,5.681-4.253,47.339,47.339,0,0,1,7.847-13.239,15.465,15.465,0,0,1,8.72-5.352,5.987,5.987,0,0,1,3.909.542c-.627.962-1.191,1.84-1.931,2.985,3.122-.672,5.756-1.939,8.8-1.824,4.549.175,7.481,2.558,9.619,6.207C321.229,120.593,321.68,125.105,321.459,129.748Z" fill="#6a250d" fill-rule="evenodd"/>
      <path id="Path_66" data-name="Path 66" d="M243.281,259.523c-.642-1.949.1-3.809.643-5.565,2.056-6.7,6.442-11.607,12.241-15.429,2.334-1.539,5.012-2.388,7.275-4.014.467-.266.645-.382,1.326-.815a5.205,5.205,0,0,0,1.393-.073c.731-.249,1.1-.469,1.19-.456.379.1.757.2,1.3.342-2.423,3.8-4.435,7.68-5.156,12.081a.747.747,0,0,0,.528-.386q.322-.637.6-1.3c1.957-4.674,4.41-9.015,8.609-12.067a79.782,79.782,0,0,1,8.069-5.426c3.335-1.847,6.834-3.537,10.889-2.556-3.005,7.236-5.321,14.805-9.506,21.485-5.83,9.306-14.671,13.742-25.359,15.089A44.7,44.7,0,0,1,243.281,259.523Zm30.413-11.561c.028,1.295.524,2.312,1.69,1.564a4.929,4.929,0,0,0,2.356-4.473c-.046-.872-.444-1.987-1.68-1.073A5.7,5.7,0,0,0,273.694,247.962Z" fill="#e6545d" fill-rule="evenodd"/>
      <path id="Path_67" data-name="Path 67" d="M292.185,223.859c-4.055-.981-7.554.709-10.889,2.556a79.782,79.782,0,0,0-8.069,5.426c-4.2,3.052-6.652,7.393-8.609,12.067q-.276.661-.6,1.3a.747.747,0,0,1-.528.386c.721-4.4,2.733-8.278,5.156-12.081-.541-.142-.99-.228-1.37-.329,2.439-1.421,5.163-2.413,7.628-3.813,3.249-1.845,5.793-4.713,9.2-6.232a13.282,13.282,0,0,1,8.807-1.177A1.546,1.546,0,0,1,292.185,223.859Z" fill="#c22026" fill-rule="evenodd"/>
      <path id="Path_68" data-name="Path 68" d="M264.769,233.7c0,.024-.023.045-.061.084a12.392,12.392,0,0,1-1.268.733c-2.266,1.626-4.939,2.473-7.276,4.015-5.794,3.819-10.185,8.728-12.238,15.431-.542,1.756-1.29,3.611-.642,5.565-.022,0-.053-.006-.084-.006a3.345,3.345,0,0,1-1.29-.329,4.388,4.388,0,0,1-.5-.283c-.061-.046-.122-.092-.184-.137.176-5.512,2.536-10.162,5.719-14.484a25.7,25.7,0,0,1,5.611-5.565,27.523,27.523,0,0,1,3.475-2.146c1.9-.985,4.3-2.275,6.337-3.1l.008-.008C262.8,233.46,264.35,233.711,264.769,233.7Z" fill="#c22026" fill-rule="evenodd"/>
      <path id="Path_69" data-name="Path 69" d="M273.694,247.962a5.7,5.7,0,0,1,2.366-3.982c1.236-.914,1.634.2,1.68,1.073a4.929,4.929,0,0,1-2.356,4.473C274.218,250.274,273.722,249.257,273.694,247.962Z" fill="#f2a2a1" fill-rule="evenodd"/>
      <path id="Path_70" data-name="Path 70" d="M252.56,238.721a25.7,25.7,0,0,0-5.611,5.565c-3.183,4.322-5.543,8.972-5.719,14.484.062.045.123.091.184.137-2.161-.878-5.505-2.543-6.749-3.969a2.282,2.282,0,0,1-.168-3.1c.985-1.671,3.97-10.024,5.505-15.154Z" fill="#802226" fill-rule="evenodd"/>
      <path id="Path_71" data-name="Path 71" d="M311.105,190.376a6.242,6.242,0,0,1-2.137.5c-2.932-.434-3.176,1.825-3.535,3.627a119.717,119.717,0,0,1-4.512,14.751c-2.6,7.6-6.757,14.506-9.712,21.95a124.174,124.174,0,0,1-5.611,12.858,32.609,32.609,0,0,1-16.423,15.223,36.348,36.348,0,0,1-12.438,2.925c-5.291.235-10.474.092-15.537-1.421-2.84-.846-5.695-1.87-7.765-4.244a4.4,4.4,0,0,1-.58-5.475c1.612-2.291,3.841-8.238,7-18.361l1.062.365a29.976,29.976,0,0,1-.916,3.613c-1.535,5.13-4.52,13.483-5.505,15.154a2.282,2.282,0,0,0,.168,3.1c1.244,1.426,4.588,3.091,6.749,3.969.183.07.352.138.512.2a8.158,8.158,0,0,0,1.274.413c.031,0,.062.006.084.006a44.646,44.646,0,0,0,14.033.91c10.689-1.352,19.531-5.789,25.364-15.087,4.184-6.689,6.5-14.254,9.505-21.493a1.544,1.544,0,0,0,.733-1.893,13.315,13.315,0,0,0-8.811,1.176c-3.413,1.519-5.955,4.389-9.2,6.238-2.466,1.4-5.123,2.374-7.558,3.794-.092-.015-.993.565-1.2.58-.473.046-.947-.023-1.42.031h-.023c-.268-.015-1.313-.169-2.336-.305-1.016-.153-2.008-.291-2.222-.3l1.978-1.168a10.428,10.428,0,0,0,4.336-.718c8.842-3.245,15.782-9.01,21.9-16.011a126.774,126.774,0,0,0,11.644-16.4c1.5-2.4,2.626-5.047,3.908-7.589a1.153,1.153,0,0,0-.726-1.787c-.7-.268-1.488-.412-1.564-1.382.336-.106.672-.214,1.008-.321C305.242,189.368,308.174,189.872,311.105,190.376Z" fill="#171716" fill-rule="evenodd"/>
      <path id="Path_72" data-name="Path 72" d="M221,71.723a38.2,38.2,0,0,0-3.2,17.216,20.1,20.1,0,0,0,1.046,6.192c.229.618.489,1.313-.107,1.916-2.389,2.68-4.8,5.351-7.184,8.048-.5.556-1.13.366-1.718.388a102.5,102.5,0,0,1-21.844-1.389c-9.787-1.7-19.339-4.26-27.921-9.605a42.618,42.618,0,0,1-12.2-11.582c-.222-.305,0,0-.756-1.077A26.082,26.082,0,0,1,143.022,70.9c-.045-.138-.282-1.482-.389-2.451-.617-7.33.054-14.384,3.49-21.095a38.336,38.336,0,0,1,13.406-14.545,32.368,32.368,0,0,1,9.315-4.215c1.267-.351,1.573-.252,2.191.527-.4,1.9-1.733,3.337-2.649,4.963a24.076,24.076,0,0,0-2.29,18.187c.03.122.366,1.251.381,1.282,1.306,3.665,4.4,6.779,6.5,8.574.114.1,2.122,1.656,2.122,1.656h.007a27.649,27.649,0,0,0,4.819,2.467,50.733,50.733,0,0,0,15.765,3.32,110.863,110.863,0,0,0,25.326-1.626,3.361,3.361,0,0,1,2.283.038C222.8,69.408,221.83,70.363,221,71.723Z" fill="#e9e9e9" fill-rule="evenodd"/>
      <path id="Path_73" data-name="Path 73" d="M421.132,67.416,419.01,72.73a38.678,38.678,0,0,1-8.093,10.49A55.4,55.4,0,0,1,392,94.52c-8.468,3.161-17.256,4.3-26.135,5.237-9.986,1.069-20,1.435-30.035,1.551a96.36,96.36,0,0,1-11.835-.848c-2.26-.26-2.718-2.467-3.732-4a31.028,31.028,0,0,1-1.483-4.925c-.676-3.4-.025-14.657.8-16.56.483-1.111,1.241-3.019,2.146-3.738,1.188-.942,1.814-2.037,5.059-2.11,4.995-.113,9.986-.5,14.98-.519a160.445,160.445,0,0,0,30.41-2.764c6.329-1.252,12.528-3.084,17.827-7.123,1.564-1.192,2.16-.94,4.894-6.383a17.145,17.145,0,0,0,1.176-5.879l.03-.062c.077-6.053-1.84-11.627-3.81-17.208a14.027,14.027,0,0,1-1.152-4.894,5.271,5.271,0,0,1,3.107-.054,68.283,68.283,0,0,1,10.972,4.215,32.7,32.7,0,0,1,11.772,11.826A36.161,36.161,0,0,1,422.026,54.8,30.967,30.967,0,0,1,421.132,67.416Z" fill="#e9e9e9" fill-rule="evenodd"/>
      <path id="Path_74" data-name="Path 74" d="M408.764,140.031a19.355,19.355,0,0,1-6.323,3.535,53.141,53.141,0,0,1-27.973,2.466,20.53,20.53,0,0,1-7.529-2.854l-1.534-1.016-.023-.016a36.115,36.115,0,0,1-5.673-5.214c-1.427-1.6-6.314-7.658-7.275-9.047-2.184-3.169-4.1-6.529-6.369-10.216,1.543.672,2.726,1.176,3.9,1.695a127.333,127.333,0,0,0,19.148,6.857c5.322,1.388,10.7,2.572,16,4.015C389.6,131.457,407,138.635,408.764,140.031Z" fill="#c18b52" fill-rule="evenodd"/>
      <path id="Path_75" data-name="Path 75" d="M207.309,145.514a3.485,3.485,0,0,1-.588.4,126.191,126.191,0,0,1-15.835,4.726c-5.016,1.237-11.132,3.627-18.927,1.542a36.978,36.978,0,0,1-13.14-6.268c.382-.115,6.467-3.7,9.185-5.436a129.973,129.973,0,0,0,15.69-11.766,29.519,29.519,0,0,1,17.018-7.185c1.589-.152,2.245.328,2.375,2.124.236,3.183.893,6.329,1.374,9.5a21.967,21.967,0,0,0,.512,4.054c.137.687.259,1.566.412,2.268v.015a3.609,3.609,0,0,0,.092.4c.022.084.045.168.076.26a9.934,9.934,0,0,0,1.206,2.375c.115.182.237.35.351.51a8.705,8.705,0,0,1,.718.924.256.256,0,0,0,.024.031C208.134,144.482,208.156,144.987,207.309,145.514Z" fill="#c18b52" fill-rule="evenodd"/>
      <g id="Group_19" data-name="Group 19">
        <path id="Path_76" data-name="Path 76" d="M384.236,147.622a60.83,60.83,0,0,1-9.892-.836,21.13,21.13,0,0,1-7.8-2.959l-1.555-1.028a36.589,36.589,0,0,1-5.842-5.358c-1.4-1.56-6.312-7.642-7.336-9.122-1.573-2.282-3-4.653-4.517-7.165-.605-1-1.226-2.031-1.874-3.086L344.142,116l3.945,1.715c.781.338,1.487.642,2.188.953a125.838,125.838,0,0,0,19.035,6.815c2.346.613,4.747,1.2,7.067,1.76,2.936.713,5.972,1.45,8.942,2.258,4.24,1.156,21.971,8.392,23.919,9.935l.7.557-.664.6a20.135,20.135,0,0,1-6.566,3.685A51.914,51.914,0,0,1,384.236,147.622Zm-36.267-28.3c.211.35.42.7.628,1.041,1.5,2.49,2.92,4.844,4.464,7.085.908,1.31,5.764,7.348,7.217,8.972a35.192,35.192,0,0,0,5.551,5.1l1.532,1.014a19.624,19.624,0,0,0,7.23,2.738,52.585,52.585,0,0,0,27.58-2.427,20.772,20.772,0,0,0,5.285-2.724c-3.9-2.075-18.489-8.052-22.539-9.155-2.948-.8-5.975-1.538-8.9-2.248-2.328-.565-4.735-1.15-7.094-1.766a127.62,127.62,0,0,1-19.265-6.9C349.108,119.819,348.558,119.58,347.969,119.325Z" fill="#161615"/>
      </g>
      <g id="Group_20" data-name="Group 20">
        <path id="Path_77" data-name="Path 77" d="M181.361,161.694c4.9-3.024,15.672-2.686,32.229,3.485,15.97,5.951,28.165-4.791,43.7-5.809,14.112-.923,28.6,16.116,27.583,34.988s-8.855,34.552-24.825,42.392-32.955-7.985-37.6-8.857-12.92,8.567-29.035,2.035c-16.6-6.734-25.6-21.323-24.824-39.78C169.267,174.01,169.6,168.953,181.361,161.694Z" fill="#b84441"/>
        <path id="Path_78" data-name="Path 78" d="M250.569,240.423c-9.2,0-17.716-5.066-23.353-8.418a25.748,25.748,0,0,0-5.047-2.638c-1.1-.2-2.746.513-4.754,1.337a32.65,32.65,0,0,1-12.942,3.042,31,31,0,0,1-11.625-2.428c-17.181-6.967-26.57-22-25.76-41.233.672-15.946.923-21.913,13.485-29.667,2.238-1.381,5.36-2.082,9.28-2.082,6.419,0,14.582,1.83,24.261,5.437a26.208,26.208,0,0,0,9.312,1.692c5.763,0,11.172-1.772,16.9-3.648,5.325-1.745,10.831-3.548,16.866-3.944,6.574-.434,13.324,2.65,18.9,8.54a38.457,38.457,0,0,1,10.274,28.026c-1.109,20.574-10.223,36.078-25.662,43.658a22.824,22.824,0,0,1-10.136,2.326ZM221.8,226.335a5.039,5.039,0,0,1,.923.083c1.415.266,3.349,1.416,6.026,3.008,5.354,3.185,13.447,8,21.82,8h0a19.824,19.824,0,0,0,8.815-2.02c18.483-9.073,23.247-27.372,23.988-41.125a35.4,35.4,0,0,0-9.455-25.8c-4.962-5.237-10.852-7.975-16.532-7.61-5.657.37-10.98,2.114-16.129,3.8-5.7,1.867-11.59,3.8-17.832,3.8a29.165,29.165,0,0,1-10.36-1.881c-9.211-3.433-17.238-5.248-23.213-5.248-3.308,0-5.972.565-7.7,1.635-11.208,6.918-11.406,11.629-12.064,27.24-.753,17.9,7.954,31.865,23.89,38.327a27.659,27.659,0,0,0,10.5,2.208,29.659,29.659,0,0,0,11.8-2.818A15.793,15.793,0,0,1,221.8,226.335Z" fill="#8a262c"/>
      </g>
      <path id="Path_79" data-name="Path 79" d="M255.579,196.559c-.6,7.374-3.451,13.635-9.494,18.127-1.965,1.46-4.289,2.568-6.836,1.079-3.226-1.887-3.907-5.125-3.58-8.338.712-7,3.516-13.05,9.221-17.535,3.347-2.634,7.391-2.376,9.383.938A9.915,9.915,0,0,1,255.579,196.559Zm-1.988-.01a17.339,17.339,0,0,0-.031-3.068c-.431-2.368-3.149-4.3-4.96-3.6a11.339,11.339,0,0,0-4.275,2.732c-4.382,4.736-7.024,10.188-6.813,16.805.061,1.95.571,3.758,2.344,4.656,1.843.936,3.727.359,5.321-.883A20.772,20.772,0,0,0,253.591,196.549Z" fill="#8a262c" fill-rule="evenodd"/>
      <path id="Path_80" data-name="Path 80" d="M178.773,191.677a10.533,10.533,0,0,1,1.031-5.41c1.559-4,6.521-4.514,9.5-1.1a20.7,20.7,0,0,1,4.956,18.217c-.735,3.97-4.666,6.937-8.789,3.608C180.524,202.994,179.246,197.535,178.773,191.677Zm1.885.3c-.006,5.46,1.639,10.306,6.139,13.894a3.144,3.144,0,0,0,5.181-1.5c.507-1.64,1.2-3.393,1.057-5.032-.444-5.288-1.75-10.326-6.266-13.8-1.943-1.5-3.215-1.1-4.921.708C180.208,187.98,180.979,189.976,180.658,191.98Z" fill="#8a262c" fill-rule="evenodd"/>
      <path id="Path_81" data-name="Path 81" d="M234.188,129.96c-2.82,5.71-10.17,13.38-14.79,16.78-1.55,1.13-2.78,1.78-3.45,1.74a.17.17,0,0,1-.07-.01c-2.08-.18-3.85-1.68-5.44-3.15a15.656,15.656,0,0,1-1.82-2.1c-.03-.04-.07-.1-.12-.16a.55.55,0,0,0-.07-.09c-.12-.16-.25-.34-.37-.52a.01.01,0,0,1-.01-.01,10.657,10.657,0,0,1-1.4-2.78c-.07-.22-.13-.45-.18-.67a2.866,2.866,0,0,1-.05-.31l-.01-.01c-.14-.8-.28-1.59-.43-2.39a9.273,9.273,0,0,1,.01-1.97,11.535,11.535,0,0,1,.57-2.8,13.485,13.485,0,0,1,5.23-7.23,13.34,13.34,0,0,1,12.94-.93c2.9,1.25,5.77,2.62,8.64,3.96C234.588,127.88,234.808,128.71,234.188,129.96Z" fill="#fff" fill-rule="evenodd"/>
      <path id="Path_82" data-name="Path 82" d="M230.725,135.316v.008c-.062.069-.115.146-.175.222q-.859,1.111-1.8,2.214a69.442,69.442,0,0,1-6.649,6.772c-.81.71-1.581,1.352-2.3,1.9-.054.038-.108.084-.161.121-2.412-1.825-4.046-5.436-4.046-9.589,0-5.986,3.4-10.842,7.611-10.842C227.007,126.124,230.16,130.109,230.725,135.316Z" fill="#008ed2" fill-rule="evenodd"/>
      <path id="Path_83" data-name="Path 83" d="M253.591,196.549a20.772,20.772,0,0,1-8.414,16.647c-1.594,1.242-3.478,1.819-5.321.883-1.773-.9-2.283-2.706-2.344-4.656-.211-6.617,2.431-12.069,6.813-16.805a11.339,11.339,0,0,1,4.275-2.732c1.811-.7,4.529,1.227,4.96,3.6A17.339,17.339,0,0,1,253.591,196.549Z" fill="#932b2c" fill-rule="evenodd"/>
      <path id="Path_84" data-name="Path 84" d="M180.658,191.98c.321-2-.45-4,1.19-5.735,1.706-1.8,2.978-2.205,4.921-.708,4.516,3.478,5.822,8.516,6.266,13.8.138,1.639-.55,3.392-1.057,5.032a3.144,3.144,0,0,1-5.181,1.5C182.3,202.286,180.652,197.44,180.658,191.98Z" fill="#932b2c" fill-rule="evenodd"/>
      <g id="Group_21" data-name="Group 21">
        <path id="Path_85" data-name="Path 85" d="M312.478,141.072c0,5.992-3.4,10.848-7.607,10.848s-7.609-4.856-7.609-10.848,3.406-10.847,7.609-10.847S312.478,135.082,312.478,141.072Z" fill="#008ed2"/>
        <path id="Path_86" data-name="Path 86" d="M304.871,152.111c-4.3,0-7.8-4.952-7.8-11.039s3.5-11.039,7.8-11.039,7.8,4.953,7.8,11.039S309.171,152.111,304.871,152.111Zm0-21.7c-4.091,0-7.418,4.781-7.418,10.657s3.327,10.658,7.418,10.658,7.417-4.781,7.417-10.658S308.961,130.415,304.871,130.415Z" fill="#171716"/>
      </g>
      <path id="Path_87" data-name="Path 87" d="M300.7,142.2c0-3.829,2.176-6.934,4.86-6.934s4.86,3.1,4.86,6.934-2.176,6.936-4.86,6.936S300.7,146.03,300.7,142.2Z" fill="#161615"/>
      <path id="Path_88" data-name="Path 88" d="M304.088,140.59c0,2.036-1.076,3.685-2.4,3.685s-2.4-1.649-2.4-3.685,1.075-3.687,2.4-3.687S304.088,138.555,304.088,140.59Z" fill="#fff"/>
      <path id="Path_89" data-name="Path 89" d="M230.885,135.1c-.107.146-.213.291-.335.444-.482-5.207-3.6-9.238-7.346-9.238-4.092,0-7.421,4.787-7.421,10.658,0,4.115,1.634,7.7,4.017,9.468-.108.076-.215.16-.314.236-2.436-1.87-4.085-5.512-4.085-9.7,0-6.085,3.5-11.04,7.8-11.04C227.053,125.926,230.26,129.9,230.885,135.1Z" fill="#27130e" fill-rule="evenodd"/>
      <path id="Path_90" data-name="Path 90" d="M228.747,137.76a69.442,69.442,0,0,1-6.649,6.772c-1.794-1.008-3.062-3.5-3.062-6.436,0-3.832,2.168-6.932,4.856-6.932C226.5,131.164,228.625,134.08,228.747,137.76Z" fill="#161615" fill-rule="evenodd"/>
      <path id="Path_91" data-name="Path 91" d="M222.417,136.486c0,2.037-1.075,3.686-2.4,3.686s-2.4-1.649-2.4-3.686,1.075-3.685,2.4-3.685S222.417,134.45,222.417,136.486Z" fill="#fff"/>
      <g id="Group_22" data-name="Group 22">
        <path id="Path_92" data-name="Path 92" d="M320.708,129.453a1.859,1.859,0,0,1-.11.67h-.1a1.892,1.892,0,0,1-.31-.03l-.57-.1-.38.44-.01.02a14.276,14.276,0,0,0-13.07-7.82,18.65,18.65,0,0,0-8.93,2.37,33.471,33.471,0,0,0-6.89,5.55c-.95.92-1.94,1.88-2.95,2.75a8.183,8.183,0,0,0-2.3,2.85l-.84.25a12.443,12.443,0,0,1-3.36.5c-.22,0-.44-.01-.66-.02-3.38-.2-6.17-2.03-9.07-4.86.25.02.5.041.75.06,1.03.09,2.02.18,3.01.18a14.283,14.283,0,0,0,1.65-.09,7.77,7.77,0,0,0,4.23-1.69,7.869,7.869,0,0,0,2.25-3.16,51.212,51.212,0,0,1,5.88-10.759c.64-.841,1.23-1.571,1.8-2.211a14.32,14.32,0,0,1,8.16-5.03,5.132,5.132,0,0,1,1-.1,4.555,4.555,0,0,1,1.2.16c-.23.35-.46.71-.7,1.09l-.55.86-1.3,2.02,2.35-.51c1.07-.23,2.08-.52,3.05-.81a18.552,18.552,0,0,1,5.16-1c.11,0,.22,0,.33.01,3.72.15,6.46,1.88,8.65,5.47l.15.24C320.2,120.133,320.968,124.043,320.708,129.453Z" fill="#341e13"/>
      </g>
      <g id="Group_23" data-name="Group 23">
        <path id="Path_93" data-name="Path 93" d="M235.884,128.915a7.766,7.766,0,0,1-.441.86,2.483,2.483,0,0,0-.04-1.51,2.84,2.84,0,0,0-1.6-1.6l-1.59-.74c-2.311-1.08-4.7-2.2-7.08-3.23a15.585,15.585,0,0,0-6.18-1.32,13.755,13.755,0,0,0-7.71,2.34,14.485,14.485,0,0,0-5.61,7.71,7.744,7.744,0,0,0-.3,1.02q-.165-.99-.33-1.98c-.36-2.17-.74-4.42-.91-6.63a3.63,3.63,0,0,0-.92-2.43c.029,0,.06.01.09.01l1,.13.12-1a9.682,9.682,0,0,1,1.36-3.78c.56-.96,1.22-1.89,1.93-2.87.49-.68.99-1.38,1.47-2.11h1.8c1.781,0,3.12.02,3.571.06,3.19.28,5.83,2.01,8.46,3.91.589.42,1.139.85,1.65,1.28,1.649,1.37,3.21,2.92,4.72,4.41a57.49,57.49,0,0,0,6.219,5.6C236.323,127.615,236.344,127.755,235.884,128.915Z" fill="#341e13"/>
      </g>
    </g>
    <g id="Layer_3" data-name="Layer 3" transform="translate(42 27)">
      <g id="Group_34" data-name="Group 34">
        <g id="Group_24" data-name="Group 24">
          <path id="Path_94" data-name="Path 94" d="M145.178,328V293.5h14.37a14,14,0,0,1,8.868,2.7,9.04,9.04,0,0,1,3.612,7.435,9.216,9.216,0,0,1-3.8,7.663,8.028,8.028,0,0,1,2.9,6.332,9.488,9.488,0,0,1-3.337,7.728c-2.128,1.75-5.174,2.637-9.053,2.637Zm13.02-10.74a1.165,1.165,0,0,0,.79-.23c.063-.05.14-.113.14-.385,0-.426,0-.57-.84-.57h-1.11v1.185Zm.675-11.565c1.155,0,1.155-.28,1.155-.705a.565.565,0,0,0-.209-.492,1.135,1.135,0,0,0-.811-.258h-1.83V305.7Z" fill="#67a4db"/>
          <path id="Path_95" data-name="Path 95" d="M159.548,295a12.49,12.49,0,0,1,7.942,2.385,7.575,7.575,0,0,1,3.038,6.255q0,5.13-5.085,7.6,4.185,2.16,4.185,6.39a8.025,8.025,0,0,1-2.79,6.57q-2.791,2.295-8.1,2.3h-12.06V295h12.87m-3.87,12.2h3.2q2.655,0,2.655-2.205a2.06,2.06,0,0,0-.72-1.62,2.637,2.637,0,0,0-1.8-.63h-3.33V307.2m0,11.565h2.52a2.664,2.664,0,0,0,1.732-.563,1.883,1.883,0,0,0,.7-1.552q0-2.068-2.34-2.07h-2.61v4.185m3.87-26.76h-15.87v37.5h15.06c4.236,0,7.6-1,10-2.977a11.064,11.064,0,0,0,3.885-8.888,9.554,9.554,0,0,0-2.2-6.254,11.08,11.08,0,0,0-1.088-16.355,15.455,15.455,0,0,0-9.8-3.026Z" fill="#161615"/>
        </g>
        <g id="Group_25" data-name="Group 25">
          <path id="Path_96" data-name="Path 96" d="M182.317,328.72a9.936,9.936,0,0,1-7.962-3.478c-1.893-2.233-2.853-5.444-2.853-9.542V293.5h12v21.66a1.719,1.719,0,0,0,.5,1.41,2.526,2.526,0,0,0,1.736.51,2.408,2.408,0,0,0,1.808-.607,2.663,2.663,0,0,0,.607-1.943V293.5h12V328h-12v-.794A10.806,10.806,0,0,1,182.317,328.72Z" fill="#67a4db"/>
          <path id="Path_97" data-name="Path 97" d="M198.652,295v31.5h-9v-2.79a8.324,8.324,0,0,1-7.335,3.51,8.467,8.467,0,0,1-6.818-2.947q-2.5-2.947-2.5-8.573V295h9v20.16a3.233,3.233,0,0,0,.99,2.52,3.931,3.931,0,0,0,2.745.9,3.849,3.849,0,0,0,2.88-1.057,4.1,4.1,0,0,0,1.035-2.993V295h9m3-3h-15v22.53a1.555,1.555,0,0,1-.178.893,1.205,1.205,0,0,1-.737.157,1.692,1.692,0,0,1-.7-.1,1.247,1.247,0,0,1-.031-.315V292H170v23.7c0,4.463,1.079,8,3.209,10.512a11.372,11.372,0,0,0,9.106,4.008,13.4,13.4,0,0,0,4.473-.72h14.862V292Z" fill="#161615"/>
        </g>
        <g id="Group_26" data-name="Group 26">
          <path id="Path_98" data-name="Path 98" d="M201.651,328V293.5h12v22.77h9.9V328Z" fill="#67a4db"/>
          <path id="Path_99" data-name="Path 99" d="M212.151,295v22.77h9.9v8.73h-18.9V295h9m3-3h-15v37.5h24.9V314.77h-9.9V292Z" fill="#161615"/>
        </g>
        <g id="Group_27" data-name="Group 27">
          <path id="Path_100" data-name="Path 100" d="M223.251,328V293.5h12v22.77h9.9V328Z" fill="#67a4db"/>
          <path id="Path_101" data-name="Path 101" d="M233.751,295v22.77h9.9v8.73h-18.9V295h9m3-3h-15v37.5h24.9V314.77h-9.9V292Z" fill="#161615"/>
        </g>
        <g id="Group_28" data-name="Group 28">
          <path id="Path_102" data-name="Path 102" d="M290.587,328l-.509-12.164-4.039,3.7h-1.617l-4.082-3.747L279.829,328H267.917l1.475-35.22h2.473l13.322,12.245,13.367-12.245h2.471L302.5,328Z" fill="#67a4db"/>
          <path id="Path_103" data-name="Path 103" d="M299.586,294.28l1.349,32.22h-8.91l-.584-13.95-5.986,5.49h-.449l-6.029-5.535-.586,13.995h-8.91l1.35-32.22h.45l13.9,12.78,13.952-12.78h.449m2.877-3H297.97l-.86.788-11.921,10.92-11.878-10.917-.861-.791h-4.5l-.121,2.874-1.35,32.22-.131,3.126h14.916l.12-2.874.316-7.545,1.273,1.169.86.79h2.786l.86-.789,1.231-1.129.314,7.5.12,2.874h14.915l-.13-3.126-1.35-32.22-.12-2.874Z" fill="#161615"/>
        </g>
        <g id="Group_29" data-name="Group 29">
          <path id="Path_104" data-name="Path 104" d="M320.331,328.72a17.84,17.84,0,0,1-12.953-5.132,18.287,18.287,0,0,1,.022-25.654,18.768,18.768,0,0,1,25.864.025,18.207,18.207,0,0,1,.047,25.557A17.8,17.8,0,0,1,320.331,328.72Zm0-24.12a6.067,6.067,0,0,0-4.464,1.709,6.564,6.564,0,0,0-.011,8.871,6.649,6.649,0,0,0,8.932-.006,6.473,6.473,0,0,0-.006-8.831A5.977,5.977,0,0,0,320.331,304.6Z" fill="#67a4db"/>
          <path id="Path_105" data-name="Path 105" d="M320.331,294.28a16.267,16.267,0,0,1,11.88,4.747,16.709,16.709,0,0,1,.045,23.423,17.353,17.353,0,0,1-23.827.068,16.787,16.787,0,0,1,.022-23.513,16.2,16.2,0,0,1,11.88-4.725m0,24.12a7.512,7.512,0,0,0,5.512-2.16,7.969,7.969,0,0,0,0-10.957,7.471,7.471,0,0,0-5.512-2.183,7.559,7.559,0,0,0-5.513,2.137,8.056,8.056,0,0,0-.022,11,7.493,7.493,0,0,0,5.535,2.16m0-27.12a19.172,19.172,0,0,0-13.991,5.594,19.785,19.785,0,0,0-.012,27.785,20.35,20.35,0,0,0,28.039-.077,19.708,19.708,0,0,0-.05-27.691,19.236,19.236,0,0,0-13.986-5.611Zm0,24.12a4.513,4.513,0,0,1-3.413-1.281,4.457,4.457,0,0,1-1.282-3.369,4.405,4.405,0,0,1,1.281-3.369,4.573,4.573,0,0,1,3.414-1.281,4.494,4.494,0,0,1,3.391,1.3,4.977,4.977,0,0,1,.01,6.7,4.529,4.529,0,0,1-3.4,1.292Z" fill="#161615"/>
        </g>
        <g id="Group_30" data-name="Group 30">
          <path id="Path_106" data-name="Path 106" d="M349.266,328.72a9.935,9.935,0,0,1-7.962-3.478c-1.894-2.234-2.854-5.444-2.854-9.542V293.5h12v21.66a1.719,1.719,0,0,0,.5,1.41,2.526,2.526,0,0,0,1.736.51,2.41,2.41,0,0,0,1.809-.607,2.667,2.667,0,0,0,.607-1.943V293.5h12V328h-12v-.794A10.808,10.808,0,0,1,349.266,328.72Z" fill="#67a4db"/>
          <path id="Path_107" data-name="Path 107" d="M365.6,295v31.5h-9v-2.79a8.326,8.326,0,0,1-7.335,3.51,8.466,8.466,0,0,1-6.818-2.947q-2.5-2.947-2.5-8.573V295h9v20.16a3.233,3.233,0,0,0,.99,2.52,3.933,3.933,0,0,0,2.745.9,3.849,3.849,0,0,0,2.88-1.057,4.1,4.1,0,0,0,1.036-2.993V295h9m3-3h-15v22.53a1.493,1.493,0,0,1-.18.894,1.206,1.206,0,0,1-.736.156,1.728,1.728,0,0,1-.7-.1,1.249,1.249,0,0,1-.031-.315V292h-15v23.7c0,4.463,1.08,8,3.21,10.512a11.519,11.519,0,0,0,9.106,4.008,13.393,13.393,0,0,0,4.472-.72H368.6V292Z" fill="#161615"/>
        </g>
        <g id="Group_31" data-name="Group 31">
          <path id="Path_108" data-name="Path 108" d="M373.55,328V305.23H366.8V293.5h25.5v11.73h-6.75V328Z" fill="#67a4db"/>
          <path id="Path_109" data-name="Path 109" d="M390.8,295v8.73h-6.75V326.5h-9V303.73H368.3V295h22.5m3-3H365.3v14.73h6.75V329.5h15V306.73h6.75V292Z" fill="#161615"/>
        </g>
        <g id="Group_32" data-name="Group 32">
          <path id="Path_110" data-name="Path 110" d="M408.649,328V315.49H404V328H392V293.5h12v10.26h4.65V293.5h12V328Z" fill="#67a4db"/>
          <path id="Path_111" data-name="Path 111" d="M419.149,295v31.5h-9V313.99H402.5V326.5h-9V295h9v10.26h7.65V295h9m3-3h-15v10.26H405.5V292h-15v37.5h15V316.99h1.65V329.5h15V292Z" fill="#161615"/>
        </g>
        <g id="Group_33" data-name="Group 33">
          <path id="Path_112" data-name="Path 112" d="M256.071,328.72a13.693,13.693,0,0,1-9.113-3.054,10.821,10.821,0,0,1-3.9-8.149L243,316.179l8.867-1.384a15.408,15.408,0,0,1-5.577-3.929,10.551,10.551,0,0,1-2.382-7.046,10.356,10.356,0,0,1,3.474-7.874,12.892,12.892,0,0,1,16.673-.213,10.831,10.831,0,0,1,3.55,7.735l.075,1.36-8.453,1.288q.277.127.486.232a20.765,20.765,0,0,1,6.751,4.461,9.794,9.794,0,0,1,2.494,6.916,9.952,9.952,0,0,1-3.823,7.9A13.725,13.725,0,0,1,256.071,328.72Zm-2.239-12.591a1.164,1.164,0,0,0,.383.887,2.966,2.966,0,0,0,2.478.119.187.187,0,0,0,.011-.171c-.161-.123-.309-.248-.452-.355a2.508,2.508,0,0,0-.489-.254c-.326-.142-.6-.256-.811-.342s-1.162-.448-1.162-.448Zm2.312-11.453a1.789,1.789,0,0,0,.331.213,7.62,7.62,0,0,0,.727.355l.077.032-.045-.45a.784.784,0,0,0-.224-.534c-.034-.033-.148-.142-.534-.142a.721.721,0,0,0-.5.139l-.025.107a1.371,1.371,0,0,0,.19.28Z" fill="#67a4db"/>
          <path id="Path_113" data-name="Path 113" d="M255.8,294.28a10.386,10.386,0,0,1,7.245,2.565,9.343,9.343,0,0,1,3.06,6.7l-7.38,1.125a2.281,2.281,0,0,0-.675-1.463,2.181,2.181,0,0,0-1.575-.562,2.219,2.219,0,0,0-1.44.473,1.513,1.513,0,0,0-.585,1.237,1.551,1.551,0,0,0,.18.742,2.34,2.34,0,0,0,1.125,1.1,8.774,8.774,0,0,0,.878.427c.254.106.644.27,1.17.5s.937.413,1.237.563a19.375,19.375,0,0,1,6.323,4.14,8.311,8.311,0,0,1,2.092,5.9,8.474,8.474,0,0,1-3.285,6.75,13.478,13.478,0,0,1-16.245.045,9.337,9.337,0,0,1-3.375-7.065l7.785-1.215a2.665,2.665,0,0,0,.9,1.912,3.407,3.407,0,0,0,2.3.7,3.564,3.564,0,0,0,2-.473,1.436,1.436,0,0,0,.7-1.237,2.017,2.017,0,0,0-.112-.675,1.49,1.49,0,0,0-.406-.585,7.017,7.017,0,0,0-.562-.472,4.052,4.052,0,0,0-.787-.428c-.345-.15-.631-.27-.855-.36s-.556-.217-.99-.383l-1.013-.382a14.852,14.852,0,0,1-6.075-3.96,9.059,9.059,0,0,1-2.025-6.075,8.874,8.874,0,0,1,2.992-6.773,10.5,10.5,0,0,1,7.4-2.767m0-3a13.446,13.446,0,0,0-9.439,3.565,11.8,11.8,0,0,0-3.956,8.975,12.015,12.015,0,0,0,2.738,8.017,13.935,13.935,0,0,0,2.293,2.131l-3.348.523-2.645.413.11,2.674a12.267,12.267,0,0,0,4.436,9.234,16.463,16.463,0,0,0,20.1-.035,11.53,11.53,0,0,0,4.361-9.052,11.244,11.244,0,0,0-2.895-7.937,17.506,17.506,0,0,0-3.572-2.881l2.569-.391,2.691-.411-.147-2.718a12.288,12.288,0,0,0-4.043-8.766,13.333,13.333,0,0,0-9.258-3.341Z" fill="#161615"/>
        </g>
      </g>
    </g>
  </g>
</svg>
